<svg id="agriculture" xmlns="http://www.w3.org/2000/svg" viewBox="0 0 200 200"><path d="M186,84.34C182.29,78.77,159.72,78,159.5,78c-27.36.37-48.91,15.57-59.5,37.81C89.4,93.57,67.87,78.37,40.5,78c-.22,0-22.79.77-26.5,6.34-3.93,5.9,7.7,30.76,7.82,31,11,23.94,49.74,40.34,75.18,24.72v33C60.89,174.42,41,200,41,200H159s-19-25.61-56-26.94v-33c25.58,15.6,64.06-.74,75.18-24.72C178.3,115.1,189.93,90.24,186,84.34ZM93,135.52C57,152,22.29,122.18,19.1,87.65,52.63,75,92.22,96.54,97.48,128.5l-47.2-22.21c-3.49-1.72-6.11,3.82-2.56,5.42L95,133.94A11.67,11.67,0,0,1,93,135.52Zm79.8-22.86c-2.64,5.28-12.14,17.84-24.64,23-14.9,5.74-34.07,6.22-43.14-1.72l47.24-22.23c3.54-1.59.94-7.14-2.56-5.42l-47.2,22.21c5.32-32,44.83-53.49,78.38-40.85C181.26,90.94,176.91,104.49,172.82,112.66Z"/></svg>