<svg id="agriculture" xmlns="http://www.w3.org/2000/svg" viewBox="0 0 200 200"><path d="M186,55.34C182.29,49.77,159.72,49,159.5,49c-27.36.37-48.91,15.57-59.5,37.81C89.4,64.57,67.87,49.37,40.5,49c-.22,0-22.79.77-26.5,6.34-3.93,5.9,7.7,30.76,7.82,31,11,23.94,49.74,40.34,75.18,24.72v33C60.89,145.42,41,171,41,171H159s-19-25.61-56-26.94v-33c25.58,15.6,64.06-.74,75.18-24.72C178.3,86.1,189.93,61.24,186,55.34ZM93,106.52C57,123,22.29,93.18,19.1,58.65,52.63,46,92.22,67.54,97.48,99.5L50.28,77.29c-3.49-1.72-6.11,3.82-2.56,5.42L95,104.94A11.67,11.67,0,0,1,93,106.52Zm79.8-22.86c-2.64,5.28-12.14,17.84-24.64,23-14.9,5.74-34.07,6.22-43.14-1.72l47.24-22.23c3.54-1.59.94-7.14-2.56-5.42L102.52,99.5c5.32-32,44.83-53.49,78.38-40.85C181.26,61.94,176.91,75.49,172.82,83.66Z"/></svg>