<svg id="agriculture" xmlns="http://www.w3.org/2000/svg" viewBox="0 0 200 200">
  <path d="M186,54.28c-3.71-5.57-26.28-6.34-26.5-6.34-27.36.37-48.91,15.56-59.5,37.81C89.4,63.5,67.87,48.31,40.5,47.94c-.22,0-22.79.77-26.5,6.34-3.93,5.9,7.7,30.76,7.82,31C32.84,109.21,71.56,125.61,97,110v33c-36.11,1.36-56,26.94-56,26.94H159S140,144.33,103,143V110c25.58,15.6,64.06-.74,75.18-24.72C178.3,85,189.93,60.18,186,54.28ZM93,105.46C57,121.93,22.29,92.12,19.1,57.59c33.53-12.67,73.12,8.89,78.38,40.85L50.28,76.23c-3.49-1.72-6.11,3.82-2.56,5.42L95,103.88A11.67,11.67,0,0,1,93,105.46Zm79.8-22.86c-2.64,5.28-12.14,17.84-24.64,23-14.9,5.74-34.07,6.22-43.14-1.72l47.24-22.23c3.54-1.6.94-7.15-2.56-5.42l-47.2,22.21c5.32-32,44.83-53.49,78.38-40.85C181.26,60.88,176.91,74.43,172.82,82.6Z"/>
</svg>
