<svg xmlns="http://www.w3.org/2000/svg" viewBox="0 0 200 200"><g id="button-accept"><path d="M100,35a65,65,0,1,1-65,65,65.08,65.08,0,0,1,65-65m0-6a71,71,0,1,0,71,71,71,71,0,0,0-71-71Z"/><path d="M132.75,66A6,6,0,0,1,137,67.76L141.24,72a6,6,0,0,1,0,8.49L93.78,128l-6.28,6.28A6,6,0,0,1,83.24,136h-.41a5.93,5.93,0,0,1-3.44-1.68l-6.12-6.12L53.94,108.83a6,6,0,0,1,0-8.48l4.26-4.25a5.93,5.93,0,0,1,4.23-1.74,6,6,0,0,1,4.25,1.74l12.51,12.51,4.24,4.25,4.24-4.25L128.5,67.77A5.93,5.93,0,0,1,132.75,66m0-6a12,12,0,0,0-8.49,3.5L83.42,104.37,70.91,91.86a12,12,0,0,0-17,0L49.69,96.1a12,12,0,0,0,0,17L69,132.41l6.12,6.12a11.9,11.9,0,0,0,7.09,3.41c.33,0,.67,0,1,0a12,12,0,0,0,8.5-3.5L98,132.2l47.46-47.46a12,12,0,0,0,0-17l-4.25-4.25a12,12,0,0,0-8.48-3.5Z"/></g></svg>