<svg xmlns="http://www.w3.org/2000/svg" viewBox="0 0 200 200">
  <g id="button-cancel-filled">
    <path d="M100,33.89a65,65,0,1,1-65,65,65.08,65.08,0,0,1,65-65m0-6a71,71,0,1,0,71,71,71,71,0,0,0-71-71Z"/>
    <path d="M133.18,61.51l4.25,4.24a12,12,0,0,1,0,17L121.16,99l16.27,16.26a12,12,0,0,1,0,17l-4.25,4.24a12,12,0,0,1-17,0L100,120.2,83.69,136.46a12,12,0,0,1-17,0l-4.25-4.24a12,12,0,0,1,0-17L78.74,99,62.47,82.72a12,12,0,0,1,0-17l4.25-4.24a12,12,0,0,1,17,0L100,77.77l16.26-16.26A12,12,0,0,1,133.18,61.51Z"/>
  </g>
</svg>
