<svg xmlns="http://www.w3.org/2000/svg" viewBox="0 0 200 200"><g id="button-cancel-filled"><path d="M100,35a65,65,0,1,1-65,65,65.08,65.08,0,0,1,65-65m0-6a71,71,0,1,0,71,71,71,71,0,0,0-71-71Z"/><path d="M133.18,62.57l4.25,4.25a12,12,0,0,1,0,17l-16.27,16.26,16.27,16.26a12,12,0,0,1,0,17l-4.25,4.25a12,12,0,0,1-17,0L100,121.26,83.69,137.53a12,12,0,0,1-17,0l-4.25-4.25a12,12,0,0,1,0-17l16.27-16.26L62.47,83.79a12,12,0,0,1,0-17l4.25-4.25a12,12,0,0,1,17,0L100,78.84l16.26-16.27A12,12,0,0,1,133.18,62.57Z"/></g></svg>