<svg xmlns="http://www.w3.org/2000/svg" viewBox="0 0 200 200">
  <g id="button-cancel">
    <path d="M100,33.89a65,65,0,1,1-65,65,65.08,65.08,0,0,1,65-65m0-6a71,71,0,1,0,71,71,71,71,0,0,0-71-71Z"/>
    <path d="M124.7,58v6a6,6,0,0,1,4.24,1.74L133.18,70a6,6,0,0,1,0,8.49L116.92,94.74,112.68,99l4.24,4.24,16.26,16.26a6,6,0,0,1,0,8.49l-4.24,4.24a6,6,0,0,1-8.48,0L104.19,116,100,111.71,95.71,116,79.44,132.22a6,6,0,0,1-8.48,0L66.72,128a6,6,0,0,1,0-8.49L83,103.23,87.22,99,83,94.74,66.72,78.48a6,6,0,0,1,0-8.49L71,65.75a6,6,0,0,1,8.48,0L95.71,82,100,86.26,104.19,82l16.27-16.27A6,6,0,0,1,124.7,64V58m0,0a12,12,0,0,0-8.49,3.5L100,77.77,83.69,61.51a12,12,0,0,0-17,0l-4.25,4.24a12,12,0,0,0,0,17L78.74,99,62.47,115.25a12,12,0,0,0,0,17l4.25,4.24a12,12,0,0,0,17,0L100,120.2l16.26,16.26a12,12,0,0,0,17,0l4.25-4.24a12,12,0,0,0,0-17L121.16,99l16.27-16.27a12,12,0,0,0,0-17l-4.25-4.24A12,12,0,0,0,124.7,58Z"/>
  </g>
</svg>
