<svg xmlns="http://www.w3.org/2000/svg" viewBox="0 0 200 200"><g id="button-cancel"><path d="M100,35a65,65,0,1,1-65,65,65.08,65.08,0,0,1,65-65m0-6a71,71,0,1,0,71,71,71,71,0,0,0-71-71Z"/><path d="M124.7,59.07v6a5.93,5.93,0,0,1,4.24,1.75l4.24,4.24a6,6,0,0,1,0,8.48L116.92,95.81l-4.24,4.24,4.24,4.24,16.26,16.27a6,6,0,0,1,0,8.48l-4.24,4.24a6,6,0,0,1-8.48,0L104.19,117,100,112.78,95.71,117,79.44,133.28a6,6,0,0,1-8.48,0L66.72,129a6,6,0,0,1,0-8.48L83,104.29l4.24-4.24L83,95.81,66.72,79.54a6,6,0,0,1,0-8.48L71,66.82a6,6,0,0,1,8.48,0L95.71,83.08,100,87.32l4.24-4.24,16.27-16.26a5.93,5.93,0,0,1,4.24-1.75v-6m0,0a12,12,0,0,0-8.49,3.5L100,78.84,83.69,62.57a12,12,0,0,0-17,0l-4.25,4.25a12,12,0,0,0,0,17l16.27,16.26L62.47,116.31a12,12,0,0,0,0,17l4.25,4.25a12,12,0,0,0,17,0L100,121.26l16.26,16.27a12,12,0,0,0,17,0l4.25-4.25a12,12,0,0,0,0-17l-16.27-16.26,16.27-16.26a12,12,0,0,0,0-17l-4.25-4.25a12,12,0,0,0-8.48-3.5Z"/></g></svg>