<svg xmlns="http://www.w3.org/2000/svg" viewBox="0 0 200 200">
  <g id="button-accept">
    <path d="M100,33.94a65,65,0,1,1-65,65,65.08,65.08,0,0,1,65-65m0-6a71,71,0,1,0,71,71,71,71,0,0,0-71-71Z"/>
    <path d="M132.75,65A6,6,0,0,1,137,66.7L141.24,71a6,6,0,0,1,0,8.48L93.78,126.89l-6.28,6.28a6,6,0,0,1-4.26,1.75l-.41,0a5.87,5.87,0,0,1-3.44-1.68l-6.12-6.12L53.94,107.77a6,6,0,0,1,0-8.49L58.19,95a6,6,0,0,1,8.48,0l12.51,12.51,4.24,4.24,4.24-4.24L128.5,66.7A6,6,0,0,1,132.75,65m0-6a12,12,0,0,0-8.49,3.5L83.42,103.31,70.91,90.8a12,12,0,0,0-17,0L49.69,95a12,12,0,0,0,0,17L69,131.35l6.12,6.12a11.9,11.9,0,0,0,7.09,3.41c.33,0,.67,0,1,0a12,12,0,0,0,8.5-3.5L98,131.14l47.46-47.46a12,12,0,0,0,0-17l-4.25-4.25a12,12,0,0,0-8.48-3.5Z"/>
  </g>
</svg>
