<svg xmlns="http://www.w3.org/2000/svg" viewBox="0 0 200 200"><g id="button-plus"><path d="M100.05,35a65,65,0,1,1-65,65,65.08,65.08,0,0,1,65-65m0-6a71,71,0,1,0,71,71,71,71,0,0,0-71-71Z"/><path d="M103.05,56.05a6,6,0,0,1,6,6v29h29a6,6,0,0,1,6,6v6a6,6,0,0,1-6,6h-29v29a6,6,0,0,1-6,6h-6a6,6,0,0,1-6-6v-29h-29a6,6,0,0,1-6-6v-6a6,6,0,0,1,6-6h29v-29a6,6,0,0,1,6-6h6m0-6h-6a12,12,0,0,0-12,12v23h-23a12,12,0,0,0-12,12v6a12,12,0,0,0,12,12h23v23a12,12,0,0,0,12,12h6a12,12,0,0,0,12-12v-23h23a12,12,0,0,0,12-12v-6a12,12,0,0,0-12-12h-23v-23a12,12,0,0,0-12-12Z"/></g></svg>