<svg xmlns="http://www.w3.org/2000/svg" viewBox="0 0 200 200"><g id="circular-economy"><path d="M100,29a71,71,0,0,0-71,71c3.74,94.18,138.27,94.15,142,0A71,71,0,0,0,100,29Zm0,132a61.06,61.06,0,0,1-61-61c3.34-80.93,118.67-80.9,122,0A61.06,61.06,0,0,1,100,161Z"/><path d="M114,108.41l-11-9.78V67.1c6.24,1.17,10.93,6,10.93,11.73,0,3.89,6.06,3.89,6,0,0-9-7.36-16.51-16.93-17.8,0-2.41.7-7.15-3-7.08s-3,4.7-3,7.1c-15.33,1.63-22.78,20.5-10.87,30.63L97,101.33V133c-6.17-1.22-10.78-6-10.78-11.7,0-3.89-6.06-3.89-6,0,0,9,7.28,16.43,16.78,17.78,0,2.39-.64,7,3,6.91s3-4.51,3-6.89C118.38,137.53,125.93,118.57,114,108.41ZM90.07,87.19C82.26,80.52,87,68.73,97,67.13V93.3ZM103,133V106.65l7,6.24C117.83,119.61,113,131.46,103,133Z"/></g></svg>