<svg xmlns="http://www.w3.org/2000/svg" viewBox="0 0 200 200">
  <g id="circular-economy">
    <path d="M100,27.94a71,71,0,0,0-71,71c3.74,94.18,138.27,94.15,142,0A71,71,0,0,0,100,27.94Zm0,132a61.06,61.06,0,0,1-61-61C42.34,18,157.67,18,161,98.94A61.06,61.06,0,0,1,100,159.94Z"/>
    <path d="M114,107.35l-11-9.78V66c6.24,1.17,10.93,6,10.93,11.73,0,3.89,6.06,3.89,6,0,0-9-7.36-16.51-16.93-17.8,0-2.41.7-7.15-3-7.08s-3,4.69-3,7.1C81.62,61.62,74.17,80.48,86.08,90.62L97,100.27V131.9c-6.17-1.22-10.78-6-10.78-11.7,0-3.9-6.06-3.9-6,0,0,9,7.28,16.43,16.78,17.78,0,2.39-.64,7,3,6.91s3-4.51,3-6.89C118.38,136.46,125.93,117.51,114,107.35ZM90.07,86.13C82.26,79.46,87,67.67,97,66.07V92.24ZM103,131.93V105.59l7,6.24C117.83,118.54,113,130.4,103,131.93Z"/>
  </g>
</svg>
