<svg xmlns="http://www.w3.org/2000/svg" viewBox="0 0 200 200">
  <g id="clothing">
    <path d="M100,170.31c-38,0-38-5.52-38-7.87V104l-4.47,4.86a6,6,0,0,1-8.27.53L32.35,95.19a6,6,0,0,1-.66-8.54L61.76,52.18a8,8,0,0,1,6-2.74H90.86l.68,2.05a9,9,0,0,0,16.92,0l.68-2.05h23.27a7.94,7.94,0,0,1,6,2.74l30.08,34.47a6,6,0,0,1-.67,8.54l-16.9,14.19a6,6,0,0,1-8.28-.54L138,103.77v58.67C138,164.79,138,170.31,100,170.31ZM68,161.4c2.85,1.3,13.81,2.91,32,2.91s29.15-1.61,32-2.91V99.93a4.5,4.5,0,0,1,7.81-3.05l7.27,7.9L164,90.59,133.91,56.12a2,2,0,0,0-1.5-.68H113.3a15.15,15.15,0,0,1-26.6,0H67.79a2,2,0,0,0-1.5.68L36.21,90.59l16.9,14.2,7.08-7.69A4.5,4.5,0,0,1,68,100.15Z"/>
  </g>
</svg>
