<svg xmlns="http://www.w3.org/2000/svg" viewBox="0 0 200 200"><g id="clothing"><path d="M100,171.38c-38,0-38-5.52-38-7.88V105.06l-4.47,4.85a6,6,0,0,1-8.27.54L32.35,96.25a6,6,0,0,1-.66-8.54L61.76,53.24a8,8,0,0,1,6-2.74H90.86l.68,2.06a9,9,0,0,0,16.92,0l.68-2.06h23.27a8,8,0,0,1,6,2.74l30.08,34.47a6,6,0,0,1-.67,8.54l-16.9,14.19a6,6,0,0,1-8.28-.53L138,104.84V163.5C138,165.86,138,171.38,100,171.38Zm-32-8.92c2.85,1.3,13.81,2.92,32,2.92s29.15-1.62,32-2.92V101a4.5,4.5,0,0,1,7.81-3l7.27,7.91L164,91.65,133.91,57.19a2,2,0,0,0-1.5-.69H113.3a15.15,15.15,0,0,1-26.6,0H67.79a2,2,0,0,0-1.5.69L36.21,91.66l16.9,14.19,7.08-7.68a4.5,4.5,0,0,1,7.81,3Z"/></g></svg>