<svg xmlns="http://www.w3.org/2000/svg" viewBox="0 0 200 200"><g id="consumer_goods" data-name="consumer goods"><path d="M122.52,110v51.43h17L154.64,110Zm14,47.43h-10V114h22.77Z"/><path d="M61.87,81.45C69.9,71.9,59.64,57,48,53.55c-.09,0-9.94-3.2-13.3.05S34,65.49,34,65.58C36.43,75.2,44.47,82.88,53.32,84c-4,3.79-7.09,11-7,16H34.35a4,4,0,0,0-3.84,5.13L47.89,164.2a10,10,0,0,0,9.59,7.18h85a10,10,0,0,0,9.59-7.18l17.38-59.12a4,4,0,0,0-3.84-5.13H145.87L109.69,52.51c3.13-6.75-6.78-11.95-10.57-5.63-3.72-6.22-13.5-1.3-10.66,5.44L52.21,100h-1.9c-.41-7.13,7.2-15.32,10.79-17.85M42.67,73.77C39.51,71,35.6,60,37.45,56.48,48.94,54.1,63.76,66.17,60,77.27l-10.47-11A2,2,0,0,0,46.67,69L56.92,79.79C51.82,80.85,47,78.12,42.67,73.77ZM93.25,56a6,6,0,0,0,5.87-2.83A6,6,0,0,0,104.78,56l33.53,44H59.76Zm53.1,106.55a4,4,0,0,1-3.83,2.88h-85a4,4,0,0,1-3.83-2.88L37,106H163Z"/><path d="M45.36,110l15.12,51.43h17V110Zm28.12,47.43h-10L50.71,114H73.48Z"/><path d="M84,110v51.42h32V110Zm28,47.42H88V114h24Z"/></g></svg>