<svg xmlns="http://www.w3.org/2000/svg" viewBox="0 0 200 200">
  <g id="consumer_goods" data-name="consumer goods">
    <g>
      <path d="M122.52,108.89v51.43h17l15.12-51.43Zm14,47.43h-10V112.89h22.77Z"/>
      <path d="M61.87,80.39C69.9,70.83,59.64,56,48,52.49c-.09,0-9.94-3.2-13.3,0S34,64.43,34,64.52c2.44,9.61,10.48,17.3,19.33,18.38-4,3.79-7.09,11-7,16H34.35A4,4,0,0,0,30.51,104l17.38,59.12a10,10,0,0,0,9.59,7.18h85a10,10,0,0,0,9.59-7.18L169.49,104a4,4,0,0,0-3.84-5.13H145.87L109.69,51.45c3.13-6.76-6.78-12-10.57-5.63-3.72-6.22-13.5-1.3-10.66,5.44L52.21,98.89h-1.9C49.9,91.76,57.51,83.57,61.1,81M42.67,72.71C39.51,70,35.6,58.92,37.45,55.42,48.94,53,63.76,65.1,60,76.21l-10.47-11A2,2,0,0,0,46.67,68L56.92,78.73C51.82,79.78,47,77.06,42.67,72.71ZM93.25,54.89a6,6,0,0,0,5.87-2.83,6,6,0,0,0,5.66,2.85l33.53,44H59.76Zm53.1,106.55a4,4,0,0,1-3.83,2.88h-85a4,4,0,0,1-3.83-2.88L37,104.89H163Z"/>
      <path d="M45.36,108.89l15.12,51.43h17V108.89Zm28.12,47.43h-10L50.71,112.89H73.48Z"/>
      <path d="M84,108.89v51.42h32V108.89Zm28,47.42H88V112.89h24Z"/>
    </g>
  </g>
</svg>
