<svg xmlns="http://www.w3.org/2000/svg" viewBox="0 0 200 200">
  <g id="ecology">
    <g>
      <path d="M100.28,163.32H40.51a16.38,16.38,0,0,1-13.69-7.08,15.85,15.85,0,0,1-.57-16.92l12.81-22.2s-3-1.71-3-1.72a2.38,2.38,0,0,1,.13-4.19L58,100.3a2.37,2.37,0,0,1,3.43,2l1.45,24.36c-.51,4.41-4.35,1.85-6.53.48L47,143.31s53.24,0,53.24,0S100.29,163.31,100.28,163.32ZM44.53,115.65s-14.81,25.67-14.82,25.67c-4.83,7.7,1.6,18.42,10.71,18H96.29s0-12,0-12-56.19,0-56.18,0l14.81-25.65a2.38,2.38,0,0,0,3.56-2.2l-.65-10.89a2.37,2.37,0,0,0-3.43-2l-9.75,4.87A2.38,2.38,0,0,0,44.53,115.65Z"/>
      <path d="M131.77,168.47c-28.41-19.75-28.41-11.1,0-30.84a2.37,2.37,0,0,1,3.68,2V143s18.69,0,18.69,0-26.63-46.1-26.61-46.12l17.31-10s30.09,52.12,30.1,52.12a16,16,0,0,1-2.55,19.37,15.64,15.64,0,0,1-11.31,4.63H135.46s0,3.44,0,3.45A2.38,2.38,0,0,1,131.77,168.47ZM118.67,155l9.1,6a2.38,2.38,0,0,0,3.69-2s29.63,0,29.63,0c9,.39,15.11-10.63,10.39-18,0,0-28.09-48.67-28.1-48.66s-10.39,6-10.38,6S161.1,147,161.08,147H131.46a2.37,2.37,0,0,0-3.68-2l-9.11,6A2.37,2.37,0,0,0,118.67,155Z"/>
      <path d="M73.37,96.14s-17.32-10-17.31-10L86.15,34c5.62-10.56,22.07-10.5,27.71,0,0,0,12.8,22.2,12.82,22.19,2.14-1.36,6-3.92,6.53.48-2.75,34.24,4.32,30.15-26.71,15.42-3.55-2.58.59-4.73,2.85-5.9L100,50S73.39,96.14,73.37,96.14ZM61.52,84.68l10.38,6S100,42,100,42l14.81,25.64a2.38,2.38,0,0,0,.12,4.19c14.41,7.26,13,8.27,13.84-8a2.38,2.38,0,0,0-3.57-2.19L110.4,36c-4.24-7.88-16.57-7.93-20.79,0C89.61,36,61.51,84.67,61.52,84.68Z"/>
      <path d="M117.34,85.12c-3.37-2.42-12.23-1-16,.48-5.3,2-11.4,7-15.16,12.34-7,10-7.82,21.3-2.28,26.94a21.56,21.56,0,0,1-5.66,5.5c-4.74,3.16-7.15,1.68-8.24-.09l-1.55,6.47c1.16-.55,1.71-.41,3.54-.26a15.17,15.17,0,0,0,8.47-2.79,25.54,25.54,0,0,0,6.71-6.54,13.26,13.26,0,0,0,5.57,1.16A19.05,19.05,0,0,0,99,127.19a26,26,0,0,0,7.27-4,30.88,30.88,0,0,0,6.1-6.38c4-5.54,6.29-10.67,7.28-16.13S121.07,87.8,117.34,85.12ZM115.7,99.91a30.1,30.1,0,0,1-2.27,7.19,42.52,42.52,0,0,1-4.32,7.33,24.71,24.71,0,0,1-11.46,9,12.33,12.33,0,0,1-8.29.35l13.5-19.89a2,2,0,0,0-3.31-2.25L86.13,121.41c-3.43-4.48-2.19-13.37,3.28-21.17,3.3-4.69,8.77-9.18,13.31-10.91a28.61,28.61,0,0,1,9-1.52,6.62,6.62,0,0,1,3.28.56C116.19,89.22,116.92,93.2,115.7,99.91Z"/>
    </g>
  </g>
</svg>
