<svg xmlns="http://www.w3.org/2000/svg" viewBox="0 0 200 200"><g id="ecology"><path d="M100.28,164.38H40.51a16.38,16.38,0,0,1-13.69-7.08,15.85,15.85,0,0,1-.57-16.92l12.81-22.19s-3-1.72-3-1.73a2.37,2.37,0,0,1,.13-4.18L58,101.37a2.37,2.37,0,0,1,3.43,2l1.45,24.35c-.51,4.41-4.35,1.85-6.53.49L47,144.37s53.24,0,53.24,0S100.29,164.37,100.28,164.38ZM44.53,116.72s-14.81,25.66-14.82,25.66c-4.83,7.71,1.6,18.42,10.71,18,0,0,55.87,0,55.87,0s0-12,0-12-56.19,0-56.18,0l14.81-25.65a2.38,2.38,0,0,0,3.56-2.2l-.65-10.88a2.38,2.38,0,0,0-3.43-2l-9.75,4.88A2.38,2.38,0,0,0,44.53,116.72Z"/><path d="M131.77,169.53c-28.41-19.75-28.41-11.09,0-30.84a2.37,2.37,0,0,1,3.68,2v3.43s18.69,0,18.69,0S127.52,98,127.54,98l17.31-10s30.09,52.12,30.1,52.12a16,16,0,0,1-2.55,19.37,15.64,15.64,0,0,1-11.31,4.63H135.46s0,3.43,0,3.44A2.38,2.38,0,0,1,131.77,169.53Zm-13.1-13.43,9.1,6a2.38,2.38,0,0,0,3.69-2s29.63,0,29.63,0c9,.39,15.11-10.63,10.39-18,0,0-28.09-48.66-28.1-48.66s-10.39,6-10.38,6,28.1,48.65,28.08,48.65H131.46a2.38,2.38,0,0,0-3.68-2l-9.11,6A2.38,2.38,0,0,0,118.67,156.1Z"/><path d="M73.37,97.2s-17.32-10-17.31-10L86.15,35.08c5.62-10.56,22.07-10.51,27.71,0,0,0,12.8,22.21,12.82,22.2,2.14-1.37,6-3.92,6.53.48C130.46,92,137.53,87.91,106.5,73.17c-3.55-2.58.59-4.73,2.85-5.9L100,51.09S73.39,97.21,73.37,97.2ZM61.52,85.74l10.38,6S100,43.07,100,43.09l14.81,25.65a2.37,2.37,0,0,0,.12,4.18c14.41,7.26,13,8.27,13.84-8a2.38,2.38,0,0,0-3.57-2.2L110.4,37.08c-4.24-7.87-16.57-7.93-20.79,0C89.61,37.08,61.51,85.74,61.52,85.74Z"/><path d="M117.34,86.18c-3.37-2.42-12.23-1-16,.48-5.3,2-11.4,7-15.16,12.34-7,10-7.82,21.3-2.28,26.94a21.56,21.56,0,0,1-5.66,5.5c-4.74,3.16-7.15,1.68-8.24-.09l-1.55,6.47c1.16-.55,1.71-.41,3.54-.26a15.17,15.17,0,0,0,8.47-2.79,25.54,25.54,0,0,0,6.71-6.54,13.26,13.26,0,0,0,5.57,1.16A19.05,19.05,0,0,0,99,128.25a26,26,0,0,0,7.27-4,30.88,30.88,0,0,0,6.1-6.38c4-5.54,6.29-10.67,7.28-16.13S121.07,88.86,117.34,86.18ZM115.7,101a30.1,30.1,0,0,1-2.27,7.19,42.52,42.52,0,0,1-4.32,7.33,24.71,24.71,0,0,1-11.46,9,12.33,12.33,0,0,1-8.29.35l13.5-19.89a2,2,0,0,0-3.31-2.25L86.13,122.47C82.7,118,83.94,109.1,89.41,101.3c3.3-4.69,8.77-9.18,13.31-10.91a28.61,28.61,0,0,1,9-1.52,6.62,6.62,0,0,1,3.28.56C116.19,90.28,116.92,94.26,115.7,101Z"/></g></svg>