<svg xmlns="http://www.w3.org/2000/svg" viewBox="0 0 200 200"><g id="education"><path d="M97,171s6,0,6,0Z"/><path d="M158,73V53c-33.21-1-54.49,6.91-58,12.81C94.82,59.87,81,53,45,53H42V73H29v98H171V73Zm-55,0c0-.14.57-13.46,49-14v92c-28.54.31-42.36,5.09-49,10ZM48,59c48.43.52,49,13.84,49,14v88.07c-6.64-5-20.46-9.74-49-10ZM35,165V79h7v78c25.78-.7,45.64,4.22,50.07,8Zm130,0H107.93c4.36-3.74,24.35-8.72,50.07-8V79h7Z"/><path d="M88,85c-6.88-2.72-10.7-6.11-32-6-3.88.06-3.9-6.06,0-6,21.07,0,28.36,3.32,33.54,6.43C92.15,80.87,90.92,85.11,88,85Z"/><path d="M88,105c-6.88-2.72-10.7-6.11-32-6-3.88.06-3.9-6.06,0-6,21.07,0,28.36,3.32,33.54,6.43C92.15,100.87,90.92,105.11,88,105Z"/><path d="M88,125c-6.88-2.72-10.7-6.11-32-6-3.88.06-3.9-6.06,0-6,21.07,0,28.36,3.32,33.54,6.43C92.15,120.87,90.92,125.11,88,125Z"/><path d="M88,145c-6.88-2.72-10.7-6.11-32-6-3.88.06-3.9-6.06,0-6,21.07,0,28.36,3.32,33.54,6.43C92.15,140.87,90.92,145.11,88,145Z"/><path d="M112,85c-2.91.11-4.16-4.13-1.54-5.57C115.64,76.32,122.93,73,144,73c3.88,0,3.9,6.06,0,6C122.69,78.89,118.9,82.28,112,85Z"/><path d="M112,105c-2.91.11-4.16-4.13-1.54-5.57C115.64,96.32,122.93,93,144,93c3.88,0,3.9,6.06,0,6C122.69,98.89,118.9,102.28,112,105Z"/><path d="M112,125c-2.91.11-4.16-4.13-1.54-5.57,5.18-3.11,12.47-6.43,33.54-6.43,3.88,0,3.9,6.06,0,6C122.69,118.89,118.9,122.28,112,125Z"/><path d="M112,145c-2.91.11-4.16-4.13-1.54-5.57,5.18-3.11,12.47-6.43,33.54-6.43,3.88-.05,3.9,6.06,0,6C122.69,138.89,118.9,142.28,112,145Z"/></g></svg>