<svg xmlns="http://www.w3.org/2000/svg" viewBox="0 0 200 200">
  <g id="education">
    <g>
      <path d="M97,169.94s6,0,6,0Z"/>
      <path d="M158,71.94v-20c-33.21-1-54.49,6.9-58,12.81-5.18-5.94-19-12.81-55-12.81H42v20H29v98H171v-98Zm-55,0c0-.14.57-13.46,49-14v92c-28.54.31-42.36,5.09-49,10ZM48,58c48.43.52,49,13.84,49,14V160c-6.64-5-20.46-9.74-49-10Zm-13,106v-86h7v78c25.78-.71,45.64,4.21,50.07,8Zm130,0H107.93c4.36-3.75,24.35-8.73,50.07-8v-78h7Z"/>
    </g>
    <path d="M88,83.94c-6.88-2.72-10.7-6.11-32-6-3.88.06-3.9-6.06,0-6,21.07,0,28.36,3.31,33.54,6.42C92.15,79.81,90.92,84.05,88,83.94Z"/>
    <path d="M88,103.94c-6.88-2.72-10.7-6.11-32-6-3.88.06-3.9-6.06,0-6,21.07,0,28.36,3.31,33.54,6.42C92.15,99.81,90.92,104.05,88,103.94Z"/>
    <path d="M88,123.94c-6.88-2.72-10.7-6.11-32-6-3.88.06-3.9-6.06,0-6,21.07,0,28.36,3.31,33.54,6.42C92.15,119.81,90.92,124.05,88,123.94Z"/>
    <path d="M88,143.94c-6.88-2.72-10.7-6.11-32-6-3.88.06-3.9-6.06,0-6,21.07,0,28.36,3.31,33.54,6.42C92.15,139.81,90.92,144.05,88,143.94Z"/>
    <path d="M112,83.94c-2.91.11-4.16-4.13-1.54-5.58,5.18-3.11,12.47-6.42,33.54-6.42,3.88-.06,3.9,6,0,6C122.69,77.83,118.9,81.21,112,83.94Z"/>
    <path d="M112,103.94c-2.91.11-4.16-4.13-1.54-5.58,5.18-3.11,12.47-6.42,33.54-6.42,3.88-.06,3.9,6,0,6C122.69,97.83,118.9,101.21,112,103.94Z"/>
    <path d="M112,123.94c-2.91.11-4.16-4.13-1.54-5.58,5.18-3.11,12.47-6.42,33.54-6.42,3.88-.06,3.9,6,0,6C122.69,117.83,118.9,121.21,112,123.94Z"/>
    <path d="M112,143.94c-2.91.11-4.16-4.13-1.54-5.58,5.18-3.11,12.47-6.42,33.54-6.42,3.88-.06,3.9,6.05,0,6C122.69,137.83,118.9,141.21,112,143.94Z"/>
  </g>
</svg>
