<svg xmlns="http://www.w3.org/2000/svg" viewBox="0 0 200 200"><g id="education"><path d="M97,171h0Z"/><path d="M97,171h0Z"/><path d="M158,73V53h-3c-36,0-49.82,6.87-55,12.81C94.82,59.87,81,53,45,53H42V73H29v98H171V73Zm-55,0c0-.14.57-13.46,49-14v92c-28.54.31-42.36,5.09-49,10ZM48,59c48.43.52,49,13.84,49,14v88.07c-6.64-5-20.46-9.74-49-10ZM35,165V79h7v78h3c28.29,0,41.19,4.2,47.07,8Zm130,0H107.93c5.88-3.8,18.78-8,47.07-8h3V79h7Z"/><path d="M88,85a3,3,0,0,1-1.54-.43C82,81.88,75.53,79,56,79a3,3,0,0,1,0-6c21.07,0,28.36,3.32,33.54,6.43A3,3,0,0,1,88,85Z"/><path d="M88,105a3,3,0,0,1-1.54-.43C82,101.88,75.53,99,56,99a3,3,0,0,1,0-6c21.07,0,28.36,3.32,33.54,6.43A3,3,0,0,1,88,105Z"/><path d="M88,125a3,3,0,0,1-1.54-.43C82,121.88,75.53,119,56,119a3,3,0,0,1,0-6c21.07,0,28.36,3.32,33.54,6.43A3,3,0,0,1,88,125Z"/><path d="M88,145a3,3,0,0,1-1.54-.43C82,141.88,75.53,139,56,139a3,3,0,0,1,0-6c21.07,0,28.36,3.32,33.54,6.43A3,3,0,0,1,88,145Z"/><path d="M112,85a3,3,0,0,1-1.54-5.57C115.64,76.32,122.93,73,144,73a3,3,0,0,1,0,6c-19.53,0-26,2.88-30.46,5.57A3,3,0,0,1,112,85Z"/><path d="M112,105a3,3,0,0,1-1.54-5.57C115.64,96.32,122.93,93,144,93a3,3,0,0,1,0,6c-19.53,0-26,2.88-30.46,5.57A3,3,0,0,1,112,105Z"/><path d="M112,125a3,3,0,0,1-1.54-5.57c5.18-3.11,12.47-6.43,33.54-6.43a3,3,0,0,1,0,6c-19.53,0-26,2.88-30.46,5.57A3,3,0,0,1,112,125Z"/><path d="M112,145a3,3,0,0,1-1.54-5.57c5.18-3.11,12.47-6.43,33.54-6.43a3,3,0,0,1,0,6c-19.53,0-26,2.88-30.46,5.57A3,3,0,0,1,112,145Z"/></g></svg>