<svg xmlns="http://www.w3.org/2000/svg" viewBox="0 0 200 200">
  <g id="energy">
    <path d="M54.5,174.17l37.08-59.23H73c-7.55.19-14.92-5.92-10.85-12.91L96.65,47c2-3.14,6.12-5.1,10.85-5.1h18c7.56-.19,14.92,5.92,10.85,12.91L116.2,86.94H127c5.43,0,10.07,2.61,11.55,6.49a7.42,7.42,0,0,1-2.37,8.36Zm53-126.31c-2.85,0-5.06,1.15-5.77,2.28L67.25,105.22a1.15,1.15,0,0,0-.07,1.33c.66,1.18,2.87,2.39,5.83,2.39h29.41L81.69,142.05,132.17,97.3c1.05-.93.82-1.52.74-1.74-.48-1.27-2.73-2.62-5.94-2.62H105.36l25.9-41.36a1.16,1.16,0,0,0,.06-1.33c-.65-1.18-2.87-2.39-5.83-2.39Z"/>
  </g>
</svg>
