<svg xmlns="http://www.w3.org/2000/svg" viewBox="0 0 200 200"><g id="energy"><path d="M54.5,171.23,91.58,112H73c-7.55.19-14.92-5.92-10.85-12.9L96.65,44c2-3.14,6.12-5.09,10.85-5.09h18c7.56-.2,14.92,5.92,10.85,12.9L116.2,84H127c5.43,0,10.07,2.61,11.55,6.49a7.42,7.42,0,0,1-2.37,8.36Zm53-126.3c-2.85,0-5.06,1.14-5.77,2.28L67.25,102.28a1.15,1.15,0,0,0-.07,1.33C67.84,104.8,70.05,106,73,106h29.41L81.69,139.11l50.48-44.75c1.05-.92.82-1.52.74-1.74C132.43,91.35,130.18,90,127,90H105.36l25.9-41.35a1.16,1.16,0,0,0,.06-1.33c-.65-1.19-2.87-2.39-5.83-2.39Z"/></g></svg>