<svg xmlns="http://www.w3.org/2000/svg" viewBox="0 0 200 200"><g id="healthcare"><path d="M114.32,35a6,6,0,0,1,6,6V79.68c3.2,0,34.61,0,38.68,0a6,6,0,0,1,6,6v28.64a6,6,0,0,1-6,6c-4.23,0-35.31,0-38.68,0,0,3.2,0,34.61,0,38.68a6,6,0,0,1-6,6H85.68a6,6,0,0,1-6-6c0-4.23,0-35.31,0-38.68-3.2,0-34.61,0-38.68,0a6,6,0,0,1-6-6V85.68a6,6,0,0,1,6-6c4.23,0,35.31,0,38.68,0,0-3.19,0-34.61,0-38.68a6,6,0,0,1,6-6h28.64m0-6H85.68a12,12,0,0,0-12,12V73.68H41a12,12,0,0,0-12,12v28.64a12,12,0,0,0,12,12H73.68V159a12,12,0,0,0,12,12h28.64a12,12,0,0,0,12-12V126.32H159a12,12,0,0,0,12-12V85.68a12,12,0,0,0-12-12H126.32V41a12,12,0,0,0-12-12Z"/></g></svg>