<svg xmlns="http://www.w3.org/2000/svg" viewBox="0 0 200 200">
  <g id="healthcare">
    <path d="M114.32,33.94a6,6,0,0,1,6,6V78.62c3.2,0,34.61,0,38.68,0a6,6,0,0,1,6,6v28.64a6,6,0,0,1-6,6c-4.23,0-35.31,0-38.68,0,0,3.19,0,34.6,0,38.68a6,6,0,0,1-6,6H85.68a6,6,0,0,1-6-6c0-4.23,0-35.32,0-38.68-3.2,0-34.61,0-38.68,0a6,6,0,0,1-6-6V84.62a6,6,0,0,1,6-6c4.23,0,35.31,0,38.68,0,0-3.19,0-34.62,0-38.68a6,6,0,0,1,6-6h28.64m0-6H85.68a12,12,0,0,0-12,12V72.62H41a12,12,0,0,0-12,12v28.64a12,12,0,0,0,12,12H73.68v32.68a12,12,0,0,0,12,12h28.64a12,12,0,0,0,12-12V125.26H159a12,12,0,0,0,12-12V84.62a12,12,0,0,0-12-12H126.32V39.94a12,12,0,0,0-12-12Z"/>
  </g>
</svg>
