<svg xmlns="http://www.w3.org/2000/svg" viewBox="0 0 200 200">
  <g id="housing">
    <path d="M142.1,99.8l0-24.56h-4.84c0-2.53.07-5.11-1.84-8.51,3.37-4.21,2.9-13.11-2.91-20-4.89-5.53-13.44-11.64-21-8.88-2.13,1.53-2.23,7.14-1.64,10.51.77,10.13,12.76,22.89,22.17,20.55,1.23,2.28,1.18,4.08,1.17,6.28H127.3v9.37L100,56.51,42.13,115.89h16V168h83.5V115.89h16.11ZM133,63l-8.81-12.27a2,2,0,1,0-3.25,2.33l8.75,12.19c-8.88-.49-18.47-14.17-15.64-24C124.22,40.76,136.33,53.63,133,63Zm5.12,16.24V95.68l-6.77-7,0-9.49ZM76.39,162V134H90.05v28Zm59.27-52.11V162H94.05V130H72.39v32H64.16V109.89H56.35L100,65.11c11.87,12.19,31.87,32.75,43.6,44.78Z"/>
    <path d="M106.27,125.29v22.79h22.78V125.29Zm9.39,18.79h-5.39v-5.4h5.39Zm0-9.4h-5.39v-5.39h5.39Zm9.39,9.4h-5.39v-5.4h5.39Zm0-9.4h-5.39v-5.39h5.39Z"/>
    <path d="M100,88.15c-15.66.5-15.66,23.2,0,23.7C115.61,111.35,115.61,88.65,100,88.15Zm-2,19.44A7.88,7.88,0,0,1,92.36,102H98ZM98,98H92.36A7.88,7.88,0,0,1,98,92.41Zm4-5.59A7.88,7.88,0,0,1,107.54,98H102Zm0,15.18V102h5.59A7.88,7.88,0,0,1,102,107.59Z"/>
  </g>
</svg>
