<svg xmlns="http://www.w3.org/2000/svg" viewBox="0 0 200 200">
  <g id="lighting">
    <path d="M99.94,23.94c-44.8-.08-66.77,55.41-34.62,86,14.11,13.34,10.4,30.74,10.85,48l12,12h23.76l12-12c.45-18.08-3.29-34.33,11.22-48.45C166.79,78.71,144.2,24,99.94,23.94Zm18,131.51c-2.87,2.85-5.48,5.49-8.49,8.49H90.66c-3-3-5.62-5.63-8.49-8.49C81.88,155.18,118.22,155.18,117.93,155.45Zm0-6.14H82.17v-9.26h35.76Zm13-44.09a43,43,0,0,0-13,28.83H105.42c7.38-12.52,9.31-22.69,6.11-32.17,15.46-10.7,6.71-39-7.64-47.41-2.09-1.36-9.26-5.69-13.91-4-5,1.79-7.94,10.92-8.25,12-4.18,12.54.82,30,11.61,37.8,4.12,3,8.16,4.25,12.56,3.73,2.79,8.48.47,17.71-7.52,30.13H82.13C80.59,104,56.4,105.75,56,73.94c-.49-23.62,20.34-44.47,43.94-44C138.81,30.23,158.91,77.63,130.93,105.22ZM95.73,77.79,103.61,98c-7.43-.8-12.7-7.68-15.41-15a29.55,29.55,0,0,1-.73-18.87C88.72,60,91,56.46,92,56.08c1.8-.21,4.78,1,8.61,3.41,11.07,6.37,18,28.09,8.69,36.6l-8-20.48C99.83,72,94.37,74.08,95.73,77.79Z"/>
  </g>
</svg>
