<svg xmlns="http://www.w3.org/2000/svg" viewBox="0 0 200 200"><g id="lighting"><path d="M99.94,25c-44.8-.08-66.77,55.41-34.62,86,14.11,13.34,10.4,30.74,10.85,48l12,12h23.76l12-12c.45-18.07-3.29-34.33,11.22-48.45C166.79,79.77,144.2,25.1,99.94,25Zm18,131.51L109.44,165H90.66c-3-3-5.62-5.63-8.49-8.49C81.88,156.25,118.22,156.25,117.93,156.51Zm0-6.14H82.17v-9.26h35.76Zm13-44.09a43,43,0,0,0-13,28.83H105.42c7.38-12.52,9.31-22.69,6.11-32.17,15.46-10.69,6.71-39-7.64-47.41-2.09-1.36-9.26-5.69-13.91-4-5,1.79-7.94,10.92-8.25,12-4.18,12.55.82,30,11.61,37.8,4.12,3,8.16,4.25,12.56,3.73,2.79,8.48.47,17.71-7.52,30.13H82.13C80.59,105,56.4,106.81,56,75c-.49-23.62,20.34-44.46,43.94-44C138.81,31.29,158.91,78.69,130.93,106.28ZM95.73,78.85l7.88,20.23c-7.43-.79-12.7-7.67-15.41-15a29.55,29.55,0,0,1-.73-18.87c1.25-4.12,3.57-7.67,4.52-8,1.8-.21,4.78,1,8.61,3.41,11.07,6.38,18,28.09,8.69,36.6l-8-20.48C99.83,73,94.37,75.14,95.73,78.85Z"/></g></svg>