<svg xmlns="http://www.w3.org/2000/svg" viewBox="0 0 200 200"><g id="manufacturing"><path d="M75,177.72c-3.71.06-6.17-3.27-6.2-6.82A41.54,41.54,0,0,1,58,168c-5.53,8.45-11.76.24-17.09-3.35-3.31-2.38-2.89-7.12-.16-9.78a41.76,41.76,0,0,1-5.62-9.64c-3.74,1-7.94-.84-8.46-4.94-.52-6.46-4.6-15.87,5.54-16.54A41.13,41.13,0,0,1,35,113c-8.52-5.56-.32-11.76,3.3-17.13,2.39-3.32,7.14-2.88,9.81-.13a41.11,41.11,0,0,1,9.62-5.63c-2.09-10,8.09-8.55,14.44-9.78,4.09-.59,7,2.94,7,6.82A41.36,41.36,0,0,1,90,90c1.83-3.35,6.28-5,9.47-2.47,4.89,4.17,14.46,7.95,7.81,15.55a41.93,41.93,0,0,1,5.67,9.67l1.59-.22.41,3-.41-3a6.06,6.06,0,0,1,6.81,5.16l1.3,9.51c.64,4-3,7.06-6.74,7a41.74,41.74,0,0,1-2.85,10.86c8.41,5.52.19,11.76-3.38,17.06-2.35,3.27-7.07,2.91-9.72.2A41.81,41.81,0,0,1,90.28,168c1.06,3.64-.94,7.92-5,8.38C85.17,176.37,74.71,177.85,75,177.72ZM57,161.33c4.78,1.58,9.45,3.73,14.62,3.81,3.18,0,2.94,4.38,3.32,6.54l9.55-1.27c-.16-2.2-1.58-6.32,1.49-7.22a35.7,35.7,0,0,0,11.91-6.95c2.26-2.22,5.16,1,7,2.26l5.86-7.65c-1.68-1.44-5.58-3.35-4.06-6.15a35.8,35.8,0,0,0,3.5-13.34c0-3.17,4.36-2.94,6.52-3.32l-1.27-9.55,0,0c-2.2.2-6.29,1.62-7.19-1.44a35.82,35.82,0,0,0-7-11.88c-2.23-2.27,1-5.19,2.29-7l-7.65-5.86c-1.46,1.68-3.37,5.64-6.18,4.11a36,36,0,0,0-13.3-3.47c-3.2,0-2.94-4.43-3.33-6.6l-9.55,1.27C63.64,89.8,65.11,94,62,94.9a35.63,35.63,0,0,0-11.84,6.93,3,3,0,0,1-3.79.14L43.14,99.5l-5.86,7.65,3.26,2.52a3,3,0,0,1,.89,3.7,35.3,35.3,0,0,0-3.49,13.26c0,3.2-4.45,2.94-6.62,3.33l1.27,9.55c2.21-.15,6.4-1.61,7.3,1.48a35.5,35.5,0,0,0,6.92,11.87c2.22,2.28-1.06,5.2-2.31,7l7.65,5.86C53.31,164.47,55,161.1,57,161.33Zm17-9.7c-27.85-.63-30.73-40.55-3-45,29.77-3.06,35.62,39.71,6.13,44.77A22.88,22.88,0,0,1,74,151.63Zm0-39.19c-23.43,1-21.05,35.3,2.24,33C96.6,142.34,94.45,112.77,74.06,112.44Z"/><path d="M122.91,104c-1.48.21-8.35-3-9.82-3.44-3.36-1.22-4.46-5.37-2.77-8.37a36.11,36.11,0,0,1-6.62-6.39c-7.82,3.92-9.33-5-11.81-10.09a5.85,5.85,0,0,1,4-7.89,36.62,36.62,0,0,1-.16-9.18c-8.32-2.68-3.07-10.2-1.23-15.49,1.22-3.38,5.39-4.46,8.4-2.76a36.27,36.27,0,0,1,6.36-6.62c-4-7.77,5.05-9.38,10.09-11.82a5.84,5.84,0,0,1,7.88,4,36.32,36.32,0,0,1,9.2-.18c2.69-8.28,10.21-3,15.48-1.2,3.35,1.21,4.46,5.35,2.78,8.34a36.66,36.66,0,0,1,6.66,6.39,5.84,5.84,0,0,1,8.43,2.48c2,5.22,7.54,12.43-.57,15.5a36.63,36.63,0,0,1,.17,9.24c8.21,2.7,2.95,10.23,1.14,15.46-1.21,3.33-5.32,4.46-8.31,2.8a36.42,36.42,0,0,1-6.42,6.65,5.83,5.83,0,0,1-2.48,8.42c-5.18,2-12.51,7.52-15.5-.59a37,37,0,0,1-9.23.16A5.94,5.94,0,0,1,122.91,104Zm.13-6Zm-7.42-2.91,7.08,2.78c.78-2,1.59-5.36,4.46-4.76A30.62,30.62,0,0,0,139,93c2.83-.7,3.78,2.62,4.62,4.58l7-3.05c-.86-1.92-2.64-4.94-.2-6.49a30.62,30.62,0,0,0,8.2-8.51c1.45-2.47,4.55-.83,6.49,0l2.78-7.08c-2-.78-5.31-1.59-4.73-4.44a30.53,30.53,0,0,0-.22-11.82c-.7-2.83,2.6-3.78,4.57-4.62l-3-7c-1.92.85-5,2.64-6.5.21a30.56,30.56,0,0,0-8.51-8.18c-2.49-1.45-.82-4.58,0-6.52l-7.08-2.78c-.78,2-1.58,5.36-4.46,4.78a30.46,30.46,0,0,0-11.77.23c-2.81.75-3.83-2.69-4.65-4.63l-7,3.05c.85,1.93,2.7,5,.24,6.56a30.44,30.44,0,0,0-8.15,8.47c-1.46,2.51-4.63.79-6.58,0l-2.78,7.08c2,.77,5.45,1.63,4.82,4.48A30.17,30.17,0,0,0,102.18,69c.74,2.81-2.71,3.83-4.65,4.65l3,7c1.93-.85,5-2.69,6.55-.23a30.59,30.59,0,0,0,8.48,8.18C118.09,90.06,116.4,93.19,115.62,95.14Zm-.13.33h0ZM164.91,79.8Zm3.27-7.3ZM168,72ZM96.8,52.65h0Zm3.27-7.29Zm64.66-1Zm-15-14.21ZM132.56,82.61c-21.36,0-27.84-29.58-8-38.36A20,20,0,0,1,150.88,54.6C156.89,67.21,146.47,83,132.56,82.61Zm-.05-34c-22.42,1.56-15.57,34.43,5.63,26.86C152,69.48,147.4,48.44,132.51,48.58Z"/></g></svg>