<svg xmlns="http://www.w3.org/2000/svg" viewBox="0 0 200 200"><defs><style>.cls-1{fill:none;stroke:#000;stroke-linejoin:round;stroke-width:6px;}</style></defs><g id="manufacturing"><path class="cls-1" d="M115,115.48,111,116a38.82,38.82,0,0,0-7.55-12.87l2.43-3.2a3,3,0,0,0-.58-4.25l-7.65-5.81a3,3,0,0,0-4.26.59L91,93.69a38.76,38.76,0,0,0-14.41-3.76l-.55-4a3,3,0,0,0-3.43-2.6l-9.5,1.3A3,3,0,0,0,60.48,88l.55,4A38.71,38.71,0,0,0,48.2,99.58L45,97.11a3,3,0,0,0-4.25.58l-5.81,7.65a3,3,0,0,0,.59,4.26l3.24,2.46a39,39,0,0,0-3.78,14.38l-4,.55a3,3,0,0,0-2.6,3.43l1.3,9.5a3,3,0,0,0,3.43,2.6l4-.55a39.15,39.15,0,0,0,7.5,12.87l-2.44,3.21a3,3,0,0,0,.58,4.25l7.65,5.81a3,3,0,0,0,4.26-.59L57,164.33a38.92,38.92,0,0,0,14.43,3.81l.54,4a3,3,0,0,0,3.43,2.6l9.5-1.3a3,3,0,0,0,2.6-3.43L87,166a38.79,38.79,0,0,0,12.91-7.53l3.16,2.4a3,3,0,0,0,4.25-.58l5.81-7.65a3,3,0,0,0-.59-4.26L109.36,146a38.85,38.85,0,0,0,3.79-14.46l3.94-.54a3,3,0,0,0,2.6-3.43l-1.3-9.5A3,3,0,0,0,115,115.48Zm-38.26,33a19.6,19.6,0,1,1,16.76-22.08A19.6,19.6,0,0,1,76.7,148.45Z"/><path class="cls-1" d="M163.53,41.62,160.36,43A33.82,33.82,0,0,0,151,34l1.28-3.24a2.63,2.63,0,0,0-1.49-3.42L143,24.31a2.64,2.64,0,0,0-3.42,1.49l-1.28,3.27a33.55,33.55,0,0,0-12.93.25L124,26.09a2.64,2.64,0,0,0-3.47-1.36l-7.64,3.33a2.64,2.64,0,0,0-1.36,3.48l1.41,3.23a33.7,33.7,0,0,0-9,9.31l-3.3-1.3a2.63,2.63,0,0,0-3.42,1.49l-3,7.76a2.64,2.64,0,0,0,1.49,3.42L99,56.74a33.63,33.63,0,0,0,.23,12.91L96,71.07a2.64,2.64,0,0,0-1.36,3.47L98,82.18a2.64,2.64,0,0,0,3.48,1.36l3.22-1.4a33.92,33.92,0,0,0,9.3,9l-1.28,3.26a2.63,2.63,0,0,0,1.49,3.42l7.76,3a2.64,2.64,0,0,0,3.42-1.49l1.27-3.25a33.69,33.69,0,0,0,13-.22L141,99.06a2.64,2.64,0,0,0,3.47,1.37l7.64-3.33a2.64,2.64,0,0,0,1.36-3.48l-1.38-3.16a33.61,33.61,0,0,0,9-9.34l3.21,1.26a2.63,2.63,0,0,0,3.42-1.49l3-7.76a2.64,2.64,0,0,0-1.49-3.42l-3.21-1.26a33.81,33.81,0,0,0-.25-13L169,54.09a2.64,2.64,0,0,0,1.36-3.47L167,43A2.64,2.64,0,0,0,163.53,41.62ZM139.34,78.19a17,17,0,1,1,8.79-22.39A17,17,0,0,1,139.34,78.19Z"/></g></svg>