<svg xmlns="http://www.w3.org/2000/svg" viewBox="0 0 200 200">
  <g id="manufacturing">
    <path d="M71,105.58c-27.68,4.44-24.8,44.36,3,45a22.88,22.88,0,0,0,3.08-.21C106.57,145.42,100.69,102.42,71,105.58Zm5.32,38.83c-23.29,2.27-25.67-32.08-2.24-33C94.45,111.71,96.6,141.28,76.3,144.41ZM71,105.58c-27.68,4.44-24.8,44.36,3,45a22.88,22.88,0,0,0,3.08-.21C106.57,145.42,100.69,102.42,71,105.58Zm5.32,38.83c-23.29,2.27-25.67-32.08-2.24-33C94.45,111.71,96.6,141.28,76.3,144.41Zm46.36-18.3c-1.13-5.26.15-15.43-8.11-14.67l-1.59.22a41.87,41.87,0,0,0-5.67-9.66c2.73-2.66,3.12-7.39-.17-9.76C101.82,88.65,95.5,80.45,90,88.92a41.77,41.77,0,0,0-10.8-2.83c0-3.87-2.94-7.4-7-6.81-6.32,1.2-16.56-.12-14.44,9.78a41.11,41.11,0,0,0-9.62,5.63c-2.67-2.75-7.42-3.2-9.81.13C34.69,100.14,26.5,106.45,35,112a41.13,41.13,0,0,0-2.83,10.78c-10.1.61-6.08,10.12-5.54,16.53.52,4.11,4.72,6,8.46,4.94a41.62,41.62,0,0,0,5.62,9.65c-2.73,2.66-3.15,7.4.16,9.78C46.16,167.21,52.5,175.42,58,167a41.52,41.52,0,0,0,10.83,2.85c0,3.87,3,7.38,7,6.77,6.24-1.2,16.52.11,14.46-9.69a41.46,41.46,0,0,0,9.69-5.66c2.65,2.72,7.37,3.08,9.72-.19,3.56-5.26,11.78-11.61,3.38-17.07a41.63,41.63,0,0,0,2.85-10.86C119.71,133.18,123.3,130.1,122.66,126.11Zm-11.94,23.67-5.86,7.66-5.11-3.89a39.41,39.41,0,0,1-16.07,9.38l.83,6.42L75,170.62l-.87-6.38a39.41,39.41,0,0,1-18-4.75l-4,5.16L44.5,158.8l3.92-5.17a39.42,39.42,0,0,1-9.34-16l-6.49.85-1.27-9.55,6.46-.89a39.32,39.32,0,0,1,4.71-17.92l-5.21-4,5.86-7.65,5.2,4a39.24,39.24,0,0,1,16-9.36l-.85-6.51L73,85.26l.88,6.44a39.46,39.46,0,0,1,18,4.69l4-5.17,7.65,5.85-3.91,5.16a39.42,39.42,0,0,1,9.4,16l6.38-.87,1.31,9.58-6.37.88a39.36,39.36,0,0,1-4.71,18ZM71,105.58c-27.68,4.44-24.8,44.36,3,45a22.88,22.88,0,0,0,3.08-.21C106.57,145.42,100.69,102.42,71,105.58Zm5.32,38.83c-23.29,2.27-25.67-32.08-2.24-33C94.45,111.71,96.6,141.28,76.3,144.41Z"/>
    <path d="M122.91,103c-1.48.21-8.35-3-9.82-3.44-3.36-1.22-4.46-5.37-2.77-8.37a36.11,36.11,0,0,1-6.62-6.39c-7.6,4-9.47-5.13-11.81-10.09a5.85,5.85,0,0,1,4-7.89,36.63,36.63,0,0,1-.16-9.18c-8.24-2.52-3.08-10.33-1.23-15.5,1.22-3.37,5.39-4.45,8.4-2.76a36.53,36.53,0,0,1,6.36-6.61c-4-7.6,5.13-9.48,10.09-11.82a5.84,5.84,0,0,1,7.88,4,37.27,37.27,0,0,1,9.2-.18c2.52-8.2,10.33-3,15.48-1.2,3.35,1.22,4.46,5.36,2.78,8.35a36.66,36.66,0,0,1,6.66,6.39c7.56-4,9.43,5.19,11.76,10.12a5.82,5.82,0,0,1-3.9,7.85,36.72,36.72,0,0,1,.17,9.25c8.13,2.53,3,10.35,1.14,15.46-1.21,3.32-5.32,4.46-8.31,2.79a36.16,36.16,0,0,1-6.42,6.66,5.83,5.83,0,0,1-2.48,8.42c-5.06,2-12.67,7.45-15.5-.59a36.55,36.55,0,0,1-9.23.15A6,6,0,0,1,122.91,103Zm.13-6Zm-7.42-2.91,7.08,2.78,2-5.2a34.61,34.61,0,0,0,16.62-.28l2.22,5.09,7-3-2.22-5.09a34.53,34.53,0,0,0,11.56-12l5.15,2,2.78-7.08-5.15-2a34.57,34.57,0,0,0-.32-16.64l5.09-2.22-3-7-5.09,2.22a34.62,34.62,0,0,0-12-11.52l2-5.19-7.08-2.79-2,5.21a34.53,34.53,0,0,0-16.6.33l-2.24-5.15-7,3,2.25,5.16a34.59,34.59,0,0,0-11.5,11.94l-5.24-2.06-2.78,7.09,5.24,2.06a34.66,34.66,0,0,0,.3,16.57l-5.16,2.25,3,7,5.15-2.25a34.56,34.56,0,0,0,11.93,11.53Zm-.13.33h0Zm49.42-15.68h0Zm3.27-7.29ZM168,71ZM96.8,51.59Zm3.27-7.29Zm64.66-1Zm-15-14.21ZM132.56,81.55c-21.25.18-27.82-29.79-8-38.36C154.73,32.25,164.55,79.53,132.56,81.55Zm-.05-34C110.12,49,117,82,138.14,74.38,152,68.62,147.29,47.2,132.51,47.52Z"/>
  </g>
</svg>
