<svg xmlns="http://www.w3.org/2000/svg" viewBox="0 0 200 200">
  <g id="phone">
    <path d="M120.06,133.8c-5.22-12.61-13.23-21.55-18.87-21.55A4.61,4.61,0,0,0,98,113.51l-6.91,2.86c-10.62,2.69-22.7-23.09-12.86-31.05,1.18-.42,7.4-3.19,8.54-3.21C99.6,76.85,80.19,29.51,67.52,31c-2.29.21-9.37,4.17-11.82,4.82C11,60.93,59.36,180.7,110.2,167.33c1.16-.36,9.17-4,10.22-3.92C126,161.09,125.88,147.83,120.06,133.8ZM101.8,118.45c7.84,2.29,20.11,32,16.2,39.12C110.17,155.28,97.89,125.54,101.8,118.45ZM68.12,37.14c7.84,2.29,20.11,32,16.21,39.13C76.49,74,64.21,44.24,68.12,37.14ZM107.9,161.78C65,172.54,17.36,58.16,61.65,39.8,60.51,50.74,69.32,72,77.86,79,57,87.19,75.05,130.85,95.32,121.1,94.19,132,103,153.32,111.54,160.27Z"/>
    <path d="M112.5,92.66a3,3,0,0,1-1.17-5.76l38.26-16.15a3,3,0,0,1,2.34,5.52L113.67,92.43A3,3,0,0,1,112.5,92.66Z"/>
    <path d="M107,78.85a3,3,0,0,1-2.52-4.61l22.16-34.79a3,3,0,0,1,5.06,3.22L109.57,77.46A3,3,0,0,1,107,78.85Z"/>
    <path d="M158.48,115a2.94,2.94,0,0,1-.65-.07L117.56,106a3,3,0,0,1,1.29-5.86l40.28,8.93A3,3,0,0,1,158.48,115Z"/>
  </g>
</svg>
