<svg xmlns="http://www.w3.org/2000/svg" viewBox="0 0 200 200">
  <g id="star">
    <path d="M100,46.47c16.42,48.61,4.64,39.91,55.81,40.54-41,30.46-36.54,17-21.32,65.61-41.64-29.63-27.43-29.51-69,0C80.82,103.85,85.11,117.43,44.19,87c51.31-.58,39.4,7.93,55.81-40.54m0-8.24a4.92,4.92,0,0,0-4.76,3.45L83.59,77.56A5,5,0,0,1,78.83,81H41.11a5,5,0,0,0-2.94,9l30.52,22.17a5,5,0,0,1,1.82,5.59L58.85,153.7a5,5,0,0,0,7.69,5.59c.37.08,33.93-25.59,33.46-23.13,1.18-1.72,31.92,22.63,33.46,23.13a5,5,0,0,0,7.69-5.59l-11.66-35.88a5,5,0,0,1,1.82-5.59l30.52-22.17a5,5,0,0,0-2.94-9H121.17a5,5,0,0,1-4.76-3.45L104.76,41.68A4.92,4.92,0,0,0,100,38.23Z"/>
  </g>
</svg>
