<svg xmlns="http://www.w3.org/2000/svg" viewBox="0 0 200 200"><g id="star"><path d="M100,47.53c16.42,48.62,4.64,39.92,55.81,40.55-41,30.46-36.54,17-21.32,65.61-41.64-29.63-27.43-29.51-69,0,15.31-48.77,19.6-35.2-21.32-65.61C95.5,87.49,83.59,96,100,47.53m0-8.24a4.91,4.91,0,0,0-4.76,3.46L83.59,78.62a5,5,0,0,1-4.76,3.46H41.11a5,5,0,0,0-2.94,9L68.69,113.3a5,5,0,0,1,1.82,5.59L58.85,154.76a5,5,0,0,0,7.69,5.59c.37.08,33.93-25.58,33.46-23.13,1.18-1.72,31.92,22.63,33.46,23.13a5,5,0,0,0,7.69-5.59l-11.66-35.87a5,5,0,0,1,1.82-5.59l30.52-22.18a5,5,0,0,0-2.94-9H121.17a5,5,0,0,1-4.76-3.46L104.76,42.75A4.91,4.91,0,0,0,100,39.29Z"/></g></svg>