<svg xmlns="http://www.w3.org/2000/svg" viewBox="0 0 200 200">
  <g id="transportation">
    <path d="M89.9,109.25h-19a3,3,0,0,0-3,3v14a3,3,0,0,0,3,3h19a3,3,0,0,0,3-3v-14A3,3,0,0,0,89.9,109.25Zm-1,16h-17v-12h17Z"/>
    <path d="M119.9,109.25h-19a3,3,0,0,0-3,3v14a3,3,0,0,0,3,3h19a3,3,0,0,0,3-3v-14A3,3,0,0,0,119.9,109.25Zm-1,16h-17v-12h17Z"/>
    <path d="M149.9,109.25h-19a3,3,0,0,0-3,3v14a3,3,0,0,0,3,3h19a3,3,0,0,0,3-3v-14A3,3,0,0,0,149.9,109.25Zm-1,16h-17v-12h17Z"/>
    <path d="M59.9,109.25H53.72a8,8,0,0,0-8,8l-.07,18.92a3,3,0,0,0,4.8,2.41l11.25-8.43a3,3,0,0,0,1.2-2.4V112.26A3,3,0,0,0,59.9,109.25Zm-1,18-9.24,6.93.06-16.93c.24-5.1,5.73-3.88,9.18-4Z"/>
    <path d="M144.59,58.26A3.5,3.5,0,0,0,148,55.61c8.22-1.6,14.86-4.1,23-4.11v-3c-8.51,0-15.15,2.51-23.61,4.17a3.52,3.52,0,0,0-6.16,1.13c-8.79,1.71-31.53,3.14-49.22,2.63-1-2.73-5.27-2.85-6.38-.17-31.83-.74-34.91-6-56.63-7.76v3c21.37,1.84,24.75,7,56.62,7.77a3.47,3.47,0,0,0,.27.46L64.11,97H53.82a21,21,0,0,0-21,21v31.5c-3.93,0-3.92,6,0,6a6,6,0,0,0,6,6H49.68C52.65,174,71,174,74,161.5h47.72c3,12.5,21.31,12.5,24.28,0h14.86a6,6,0,0,0,6-6c3.63.32,4.44-1.79,4.18-5,0-2.26-2.18-3.29-4.18-3V118a21,21,0,0,0-21-21H121.64L144.3,58.24A1.42,1.42,0,0,0,144.59,58.26Zm-77,103.24c-4,7.51-15.34,1.65-11.53-6C60.1,148,71.41,153.86,67.58,161.5Zm72,0c-4.05,7.51-15.34,1.65-11.53-6C132.1,148,143.41,153.86,139.58,161.5Zm6.24-58.5a15,15,0,0,1,15,15v37.5H146c-3-12.5-21.32-12.5-24.28,0H74c-3-12.5-21.32-12.5-24.28,0H38.82V118a15,15,0,0,1,15-15Zm-27.66-6H67.58l20.9-35.75a3.48,3.48,0,0,0,3.38-1.82c17.91.51,40.85-.92,49.82-2.66Z"/>
  </g>
</svg>
