<svg xmlns="http://www.w3.org/2000/svg" viewBox="0 0 200 200">
  <g id="wastewater">
    <path d="M162.88,162.93c-6,9.46-15.42,1-17.52-5.71-4-10.15-10.06-7.73-13.36,1.6,2.6-32.14-3.25-65-40.89-69.52,2.1-21.9-4-62.65-12.11-60.3H29V129H79c2.2,0,4.26-2.32,6-6.38,16.48,4.24,16.64,19.75,16,33.92C92.13,137.92,88.12,167.77,77.82,167c-10.56,1.69-9.94-11.4-19.8-11.75-5.75-.45-10,10.55-14.78,11.79-5.55-.8-6.19-4.35-14.24-4.12v4c7.68-.19,7.63,3.79,14.24,4.12,5.71.42,10-10.65,14.78-11.79,3.19-.31,5.34,4.11,7.7,6.64,8.61,10.68,22.31,3.63,26.36-6.79,1-1.69,2.41-4.24,3-4.5,2,1.89,3.66,7.19,5.76,10.57,3.08,5.13,11.44,5.9,16.15,5.9,6.84.14,16.24-1.59,19.51-12.35,4.94-13.18,4.41,13.41,20.07,12.3,6,1.7,11.24-9.72,14.41-10.41v-4C167.75,156.56,165,160,162.88,162.93ZM79,36.62c6.12,13.74,6.83,35.43,6.1,52.49H72.9C72.16,72.06,72.88,50.34,79,36.62ZM35,123V35H73.12c-8.44,15.75-8.44,72.25,0,88Zm91,42.63c-6.16,1.93-13.44,1.94-19-.34.81-24.4,1.73-49.11-30.08-49.29a106.26,106.26,0,0,1-3.6-20.89C125.45,92.16,127.91,123,126,165.63Z"/>
  </g>
</svg>
