<svg xmlns="http://www.w3.org/2000/svg" viewBox="0 0 200 200">
  <g id="website">
    <path d="M170.94,97C170.27,50.08,118.33,15.87,75,33.54,14.18,56,14.18,144.06,75,166.46,121,185,174.18,146.58,170.94,97ZM145.77,53.86a65.61,65.61,0,0,1,6.58,7.61H142a66.07,66.07,0,0,0-13.73-20A64.35,64.35,0,0,1,145.77,53.86ZM125,97a180.82,180.82,0,0,0-2.76-29.53h15.83A87.49,87.49,0,0,1,144,97Zm19,6a87.62,87.62,0,0,1-5.87,29.47H122.23A181.21,181.21,0,0,0,125,103ZM130.44,53.25a65.14,65.14,0,0,1,4.91,8.22H121c-2.3-10.06-5.47-18.37-9.21-24.06C118.69,40.28,125.09,45.67,130.44,53.25ZM80.93,97a173,173,0,0,1,2.84-29.53h32.36A173,173,0,0,1,119,97Zm38,6a172.36,172.36,0,0,1-2.83,29.47H83.76A172.36,172.36,0,0,1,80.93,103Zm-19-68c4.71-1.43,13.53,17.49,14.9,26.47H85.06C86.4,52.52,95.31,33.52,99.94,35ZM88.12,37.41c-3.74,5.69-6.91,14-9.21,24.06H64.55C69.47,51.27,78.65,41.08,88.12,37.41ZM74.92,97H56a87.49,87.49,0,0,1,5.9-29.53H77.68A180.82,180.82,0,0,0,74.92,97Zm2.75,35.47H61.82A87.62,87.62,0,0,1,56,103h19A181.21,181.21,0,0,0,77.67,132.47ZM53.86,54.23A64.37,64.37,0,0,1,71.54,41.55,66.27,66.27,0,0,0,57.9,61.47H47.65A65.26,65.26,0,0,1,53.86,54.23ZM39.16,77.11a64.86,64.86,0,0,1,4.55-9.64H55.45A94.75,94.75,0,0,0,50,97H35.07A64.16,64.16,0,0,1,39.16,77.11Zm0,45.77A64.32,64.32,0,0,1,35.07,103H50a94.37,94.37,0,0,0,5.48,29.47H43.68A63.23,63.23,0,0,1,39.15,122.88Zm15.08,23.26a64.77,64.77,0,0,1-6.62-7.67H57.87a66.44,66.44,0,0,0,13.66,20A64.36,64.36,0,0,1,54.23,146.14Zm15.23.61a66.06,66.06,0,0,1-4.94-8.28H78.9c2.29,10.09,5.47,18.42,9.22,24.12C81.21,159.72,74.81,154.33,69.46,146.75ZM100,165c-4.73,1.51-13.6-17.54-15-26.53h29.8C113.52,147.42,104.65,166.39,100,165Zm11.78-2.41c3.75-5.7,6.93-14,9.22-24.12h14.38C130.46,148.68,121.27,158.91,111.78,162.59Zm34.36-16.82a64.59,64.59,0,0,1-17.88,12.78A66.39,66.39,0,0,0,142,138.47h10.36A65.18,65.18,0,0,1,146.14,145.77Zm14.7-22.88a64,64,0,0,1-4.52,9.58H144.47A94.37,94.37,0,0,0,150,103h15A64.16,64.16,0,0,1,160.84,122.89ZM150,97a94.75,94.75,0,0,0-5.5-29.53h11.84A64.72,64.72,0,0,1,164.93,97Z"/>
  </g>
</svg>
