<svg style="display: none" aria-hidden="true" xmlns="http://www.w3.org/2000/svg">
  <defs>
    <symbol id="agriculture" viewBox="0 0 200 200">
      <path d="M186,54.28c-3.71-5.57-26.28-6.34-26.5-6.34-27.36.37-48.91,15.56-59.5,37.81C89.4,63.5,67.87,48.31,40.5,47.94c-.22,0-22.79.77-26.5,6.34-3.93,5.9,7.7,30.76,7.82,31C32.84,109.21,71.56,125.61,97,110v33c-36.11,1.36-56,26.94-56,26.94H159S140,144.33,103,143V110c25.58,15.6,64.06-.74,75.18-24.72C178.3,85,189.93,60.18,186,54.28ZM93,105.46C57,121.93,22.29,92.12,19.1,57.59c33.53-12.67,73.12,8.89,78.38,40.85L50.28,76.23c-3.49-1.72-6.11,3.82-2.56,5.42L95,103.88A11.67,11.67,0,0,1,93,105.46Zm79.8-22.86c-2.64,5.28-12.14,17.84-24.64,23-14.9,5.74-34.07,6.22-43.14-1.72l47.24-22.23c3.54-1.6.94-7.15-2.56-5.42l-47.2,22.21c5.32-32,44.83-53.49,78.38-40.85C181.26,60.88,176.91,74.43,172.82,82.6Z" xmlns="http://www.w3.org/2000/svg" />
    </symbol>
    <symbol id="button-accept-filled" viewBox="0 0 200 200">
      <path d="M100,33.94a65,65,0,1,1-65,65,65.08,65.08,0,0,1,65-65m0-6a71,71,0,1,0,71,71,71,71,0,0,0-71-71Z" />
      <path d="M145.48,83.68,98,131.14l-6.28,6.28a11.59,11.59,0,0,1-16.59.05L69,131.35,49.69,112a12,12,0,0,1,0-17l4.25-4.24a12,12,0,0,1,17,0l12.51,12.51,40.84-40.85a12,12,0,0,1,17,0l4.25,4.25A12,12,0,0,1,145.48,83.68Z" />
    </symbol>
    <symbol id="button-accept" viewBox="0 0 200 200">
      <path d="M100,33.94a65,65,0,1,1-65,65,65.08,65.08,0,0,1,65-65m0-6a71,71,0,1,0,71,71,71,71,0,0,0-71-71Z" />
      <path d="M132.75,65A6,6,0,0,1,137,66.7L141.24,71a6,6,0,0,1,0,8.48L93.78,126.89l-6.28,6.28a6,6,0,0,1-4.26,1.75l-.41,0a5.87,5.87,0,0,1-3.44-1.68l-6.12-6.12L53.94,107.77a6,6,0,0,1,0-8.49L58.19,95a6,6,0,0,1,8.48,0l12.51,12.51,4.24,4.24,4.24-4.24L128.5,66.7A6,6,0,0,1,132.75,65m0-6a12,12,0,0,0-8.49,3.5L83.42,103.31,70.91,90.8a12,12,0,0,0-17,0L49.69,95a12,12,0,0,0,0,17L69,131.35l6.12,6.12a11.9,11.9,0,0,0,7.09,3.41c.33,0,.67,0,1,0a12,12,0,0,0,8.5-3.5L98,131.14l47.46-47.46a12,12,0,0,0,0-17l-4.25-4.25a12,12,0,0,0-8.48-3.5Z" />
    </symbol>
    <symbol id="button-cancel-filled" viewBox="0 0 200 200">
      <path d="M100,33.89a65,65,0,1,1-65,65,65.08,65.08,0,0,1,65-65m0-6a71,71,0,1,0,71,71,71,71,0,0,0-71-71Z" />
      <path d="M133.18,61.51l4.25,4.24a12,12,0,0,1,0,17L121.16,99l16.27,16.26a12,12,0,0,1,0,17l-4.25,4.24a12,12,0,0,1-17,0L100,120.2,83.69,136.46a12,12,0,0,1-17,0l-4.25-4.24a12,12,0,0,1,0-17L78.74,99,62.47,82.72a12,12,0,0,1,0-17l4.25-4.24a12,12,0,0,1,17,0L100,77.77l16.26-16.26A12,12,0,0,1,133.18,61.51Z" />
    </symbol>
    <symbol id="button-cancel" viewBox="0 0 200 200">
      <path d="M100,33.89a65,65,0,1,1-65,65,65.08,65.08,0,0,1,65-65m0-6a71,71,0,1,0,71,71,71,71,0,0,0-71-71Z" />
      <path d="M124.7,58v6a6,6,0,0,1,4.24,1.74L133.18,70a6,6,0,0,1,0,8.49L116.92,94.74,112.68,99l4.24,4.24,16.26,16.26a6,6,0,0,1,0,8.49l-4.24,4.24a6,6,0,0,1-8.48,0L104.19,116,100,111.71,95.71,116,79.44,132.22a6,6,0,0,1-8.48,0L66.72,128a6,6,0,0,1,0-8.49L83,103.23,87.22,99,83,94.74,66.72,78.48a6,6,0,0,1,0-8.49L71,65.75a6,6,0,0,1,8.48,0L95.71,82,100,86.26,104.19,82l16.27-16.27A6,6,0,0,1,124.7,64V58m0,0a12,12,0,0,0-8.49,3.5L100,77.77,83.69,61.51a12,12,0,0,0-17,0l-4.25,4.24a12,12,0,0,0,0,17L78.74,99,62.47,115.25a12,12,0,0,0,0,17l4.25,4.24a12,12,0,0,0,17,0L100,120.2l16.26,16.26a12,12,0,0,0,17,0l4.25-4.24a12,12,0,0,0,0-17L121.16,99l16.27-16.27a12,12,0,0,0,0-17l-4.25-4.24A12,12,0,0,0,124.7,58Z" />
    </symbol>
    <symbol id="button-minus-filled" viewBox="0 0 200 200">
      <path d="M100.05,33.89a65,65,0,1,1-65,65,65.08,65.08,0,0,1,65-65m0-6a71,71,0,1,0,71,71,71,71,0,0,0-71-71Z" />
      <rect x="50.05" y="83.99" width="100" height="30" rx="12" />
    </symbol>
    <symbol id="button-minus" viewBox="0 0 200 200">
      <path d="M100.05,33.89a65,65,0,1,1-65,65,65.08,65.08,0,0,1,65-65m0-6a71,71,0,1,0,71,71,71,71,0,0,0-71-71Z" />
      <path d="M138.05,90a6,6,0,0,1,6,6v6a6,6,0,0,1-6,6h-76a6,6,0,0,1-6-6V96a6,6,0,0,1,6-6h76m0-6h-76a12,12,0,0,0-12,12v6a12,12,0,0,0,12,12h76a12,12,0,0,0,12-12V96a12,12,0,0,0-12-12Z" />
    </symbol>
    <symbol id="button-plus-filled" viewBox="0 0 200 200">
      <path d="M100.05,33.89a65,65,0,1,1-65,65,65.08,65.08,0,0,1,65-65m0-6a71,71,0,1,0,71,71,71,71,0,0,0-71-71Z" />
      <path d="M150.05,96v6a12,12,0,0,1-12,12h-23v23a12,12,0,0,1-12,12h-6a12,12,0,0,1-12-12V114h-23a12,12,0,0,1-12-12V96a12,12,0,0,1,12-12h23V61a12,12,0,0,1,12-12h6a12,12,0,0,1,12,12V84h23A12,12,0,0,1,150.05,96Z" />
    </symbol>
    <symbol id="button-plus" viewBox="0 0 200 200">
      <path d="M100.05,33.89a65,65,0,1,1-65,65,65.08,65.08,0,0,1,65-65m0-6a71,71,0,1,0,71,71,71,71,0,0,0-71-71Z" />
      <path d="M103.05,55a6,6,0,0,1,6,6V90h29a6,6,0,0,1,6,6v6a6,6,0,0,1-6,6h-29v29a6,6,0,0,1-6,6h-6a6,6,0,0,1-6-6V108h-29a6,6,0,0,1-6-6V96a6,6,0,0,1,6-6h29V61a6,6,0,0,1,6-6h6m0-6h-6a12,12,0,0,0-12,12V84h-23a12,12,0,0,0-12,12v6a12,12,0,0,0,12,12h23v23a12,12,0,0,0,12,12h6a12,12,0,0,0,12-12V114h23a12,12,0,0,0,12-12V96a12,12,0,0,0-12-12h-23V61a12,12,0,0,0-12-12Z" />
    </symbol>
    <symbol id="circular-economy" viewBox="0 0 200 200">
      <path d="M100,27.94a71,71,0,0,0-71,71c3.74,94.18,138.27,94.15,142,0A71,71,0,0,0,100,27.94Zm0,132a61.06,61.06,0,0,1-61-61C42.34,18,157.67,18,161,98.94A61.06,61.06,0,0,1,100,159.94Z" />
      <path d="M114,107.35l-11-9.78V66c6.24,1.17,10.93,6,10.93,11.73,0,3.89,6.06,3.89,6,0,0-9-7.36-16.51-16.93-17.8,0-2.41.7-7.15-3-7.08s-3,4.69-3,7.1C81.62,61.62,74.17,80.48,86.08,90.62L97,100.27V131.9c-6.17-1.22-10.78-6-10.78-11.7,0-3.9-6.06-3.9-6,0,0,9,7.28,16.43,16.78,17.78,0,2.39-.64,7,3,6.91s3-4.51,3-6.89C118.38,136.46,125.93,117.51,114,107.35ZM90.07,86.13C82.26,79.46,87,67.67,97,66.07V92.24ZM103,131.93V105.59l7,6.24C117.83,118.54,113,130.4,103,131.93Z" />
    </symbol>
    <symbol id="clothing" viewBox="0 0 200 200">
      <path d="M100,170.31c-38,0-38-5.52-38-7.87V104l-4.47,4.86a6,6,0,0,1-8.27.53L32.35,95.19a6,6,0,0,1-.66-8.54L61.76,52.18a8,8,0,0,1,6-2.74H90.86l.68,2.05a9,9,0,0,0,16.92,0l.68-2.05h23.27a7.94,7.94,0,0,1,6,2.74l30.08,34.47a6,6,0,0,1-.67,8.54l-16.9,14.19a6,6,0,0,1-8.28-.54L138,103.77v58.67C138,164.79,138,170.31,100,170.31ZM68,161.4c2.85,1.3,13.81,2.91,32,2.91s29.15-1.61,32-2.91V99.93a4.5,4.5,0,0,1,7.81-3.05l7.27,7.9L164,90.59,133.91,56.12a2,2,0,0,0-1.5-.68H113.3a15.15,15.15,0,0,1-26.6,0H67.79a2,2,0,0,0-1.5.68L36.21,90.59l16.9,14.2,7.08-7.69A4.5,4.5,0,0,1,68,100.15Z" />
    </symbol>
    <symbol id="consumer-goods" viewBox="0 0 200 200">
      <path d="M122.52,108.89v51.43h17l15.12-51.43Zm14,47.43h-10V112.89h22.77Z" />
      <path d="M61.87,80.39C69.9,70.83,59.64,56,48,52.49c-.09,0-9.94-3.2-13.3,0S34,64.43,34,64.52c2.44,9.61,10.48,17.3,19.33,18.38-4,3.79-7.09,11-7,16H34.35A4,4,0,0,0,30.51,104l17.38,59.12a10,10,0,0,0,9.59,7.18h85a10,10,0,0,0,9.59-7.18L169.49,104a4,4,0,0,0-3.84-5.13H145.87L109.69,51.45c3.13-6.76-6.78-12-10.57-5.63-3.72-6.22-13.5-1.3-10.66,5.44L52.21,98.89h-1.9C49.9,91.76,57.51,83.57,61.1,81M42.67,72.71C39.51,70,35.6,58.92,37.45,55.42,48.94,53,63.76,65.1,60,76.21l-10.47-11A2,2,0,0,0,46.67,68L56.92,78.73C51.82,79.78,47,77.06,42.67,72.71ZM93.25,54.89a6,6,0,0,0,5.87-2.83,6,6,0,0,0,5.66,2.85l33.53,44H59.76Zm53.1,106.55a4,4,0,0,1-3.83,2.88h-85a4,4,0,0,1-3.83-2.88L37,104.89H163Z" />
      <path d="M45.36,108.89l15.12,51.43h17V108.89Zm28.12,47.43h-10L50.71,112.89H73.48Z" />
      <path d="M84,108.89v51.42h32V108.89Zm28,47.42H88V112.89h24Z" />
    </symbol>
    <symbol id="ecology" viewBox="0 0 200 200">
      <path d="M100.28,163.32H40.51a16.38,16.38,0,0,1-13.69-7.08,15.85,15.85,0,0,1-.57-16.92l12.81-22.2s-3-1.71-3-1.72a2.38,2.38,0,0,1,.13-4.19L58,100.3a2.37,2.37,0,0,1,3.43,2l1.45,24.36c-.51,4.41-4.35,1.85-6.53.48L47,143.31s53.24,0,53.24,0S100.29,163.31,100.28,163.32ZM44.53,115.65s-14.81,25.67-14.82,25.67c-4.83,7.7,1.6,18.42,10.71,18H96.29s0-12,0-12-56.19,0-56.18,0l14.81-25.65a2.38,2.38,0,0,0,3.56-2.2l-.65-10.89a2.37,2.37,0,0,0-3.43-2l-9.75,4.87A2.38,2.38,0,0,0,44.53,115.65Z" />
      <path d="M131.77,168.47c-28.41-19.75-28.41-11.1,0-30.84a2.37,2.37,0,0,1,3.68,2V143s18.69,0,18.69,0-26.63-46.1-26.61-46.12l17.31-10s30.09,52.12,30.1,52.12a16,16,0,0,1-2.55,19.37,15.64,15.64,0,0,1-11.31,4.63H135.46s0,3.44,0,3.45A2.38,2.38,0,0,1,131.77,168.47ZM118.67,155l9.1,6a2.38,2.38,0,0,0,3.69-2s29.63,0,29.63,0c9,.39,15.11-10.63,10.39-18,0,0-28.09-48.67-28.1-48.66s-10.39,6-10.38,6S161.1,147,161.08,147H131.46a2.37,2.37,0,0,0-3.68-2l-9.11,6A2.37,2.37,0,0,0,118.67,155Z" />
      <path d="M73.37,96.14s-17.32-10-17.31-10L86.15,34c5.62-10.56,22.07-10.5,27.71,0,0,0,12.8,22.2,12.82,22.19,2.14-1.36,6-3.92,6.53.48-2.75,34.24,4.32,30.15-26.71,15.42-3.55-2.58.59-4.73,2.85-5.9L100,50S73.39,96.14,73.37,96.14ZM61.52,84.68l10.38,6S100,42,100,42l14.81,25.64a2.38,2.38,0,0,0,.12,4.19c14.41,7.26,13,8.27,13.84-8a2.38,2.38,0,0,0-3.57-2.19L110.4,36c-4.24-7.88-16.57-7.93-20.79,0C89.61,36,61.51,84.67,61.52,84.68Z" />
      <path d="M117.34,85.12c-3.37-2.42-12.23-1-16,.48-5.3,2-11.4,7-15.16,12.34-7,10-7.82,21.3-2.28,26.94a21.56,21.56,0,0,1-5.66,5.5c-4.74,3.16-7.15,1.68-8.24-.09l-1.55,6.47c1.16-.55,1.71-.41,3.54-.26a15.17,15.17,0,0,0,8.47-2.79,25.54,25.54,0,0,0,6.71-6.54,13.26,13.26,0,0,0,5.57,1.16A19.05,19.05,0,0,0,99,127.19a26,26,0,0,0,7.27-4,30.88,30.88,0,0,0,6.1-6.38c4-5.54,6.29-10.67,7.28-16.13S121.07,87.8,117.34,85.12ZM115.7,99.91a30.1,30.1,0,0,1-2.27,7.19,42.52,42.52,0,0,1-4.32,7.33,24.71,24.71,0,0,1-11.46,9,12.33,12.33,0,0,1-8.29.35l13.5-19.89a2,2,0,0,0-3.31-2.25L86.13,121.41c-3.43-4.48-2.19-13.37,3.28-21.17,3.3-4.69,8.77-9.18,13.31-10.91a28.61,28.61,0,0,1,9-1.52,6.62,6.62,0,0,1,3.28.56C116.19,89.22,116.92,93.2,115.7,99.91Z" />
    </symbol>
    <symbol id="education" viewBox="0 0 200 200">
      <path d="M97,169.94s6,0,6,0Z" />
      <path d="M158,71.94v-20c-33.21-1-54.49,6.9-58,12.81-5.18-5.94-19-12.81-55-12.81H42v20H29v98H171v-98Zm-55,0c0-.14.57-13.46,49-14v92c-28.54.31-42.36,5.09-49,10ZM48,58c48.43.52,49,13.84,49,14V160c-6.64-5-20.46-9.74-49-10Zm-13,106v-86h7v78c25.78-.71,45.64,4.21,50.07,8Zm130,0H107.93c4.36-3.75,24.35-8.73,50.07-8v-78h7Z" />
      <path d="M88,83.94c-6.88-2.72-10.7-6.11-32-6-3.88.06-3.9-6.06,0-6,21.07,0,28.36,3.31,33.54,6.42C92.15,79.81,90.92,84.05,88,83.94Z" />
      <path d="M88,103.94c-6.88-2.72-10.7-6.11-32-6-3.88.06-3.9-6.06,0-6,21.07,0,28.36,3.31,33.54,6.42C92.15,99.81,90.92,104.05,88,103.94Z" />
      <path d="M88,123.94c-6.88-2.72-10.7-6.11-32-6-3.88.06-3.9-6.06,0-6,21.07,0,28.36,3.31,33.54,6.42C92.15,119.81,90.92,124.05,88,123.94Z" />
      <path d="M88,143.94c-6.88-2.72-10.7-6.11-32-6-3.88.06-3.9-6.06,0-6,21.07,0,28.36,3.31,33.54,6.42C92.15,139.81,90.92,144.05,88,143.94Z" />
      <path d="M112,83.94c-2.91.11-4.16-4.13-1.54-5.58,5.18-3.11,12.47-6.42,33.54-6.42,3.88-.06,3.9,6,0,6C122.69,77.83,118.9,81.21,112,83.94Z" />
      <path d="M112,103.94c-2.91.11-4.16-4.13-1.54-5.58,5.18-3.11,12.47-6.42,33.54-6.42,3.88-.06,3.9,6,0,6C122.69,97.83,118.9,101.21,112,103.94Z" />
      <path d="M112,123.94c-2.91.11-4.16-4.13-1.54-5.58,5.18-3.11,12.47-6.42,33.54-6.42,3.88-.06,3.9,6,0,6C122.69,117.83,118.9,121.21,112,123.94Z" />
      <path d="M112,143.94c-2.91.11-4.16-4.13-1.54-5.58,5.18-3.11,12.47-6.42,33.54-6.42,3.88-.06,3.9,6.05,0,6C122.69,137.83,118.9,141.21,112,143.94Z" />
    </symbol>
    <symbol id="email" viewBox="0 0 200 200">
      <path d="M159,50H41.05a12,12,0,0,0-12,12v76a12,12,0,0,0,12,12H159a12,12,0,0,0,12-12V62A12,12,0,0,0,159,50ZM41.05,56c.73,0,117.87-.06,118.49,0l-50.33,44a14.12,14.12,0,0,1-18.51,0L40.45,56Q40.75,56,41.05,56Zm124,82a6,6,0,0,1-6,6H41.05a6,6,0,0,1-6-6V62a6,6,0,0,1,.46-2.32l51.24,44.81a20.12,20.12,0,0,0,26.4,0l51.37-44.86A6,6,0,0,1,165,62Z" />
    </symbol>
    <symbol id="energy" viewBox="0 0 200 200">
      <path d="M54.5,174.17l37.08-59.23H73c-7.55.19-14.92-5.92-10.85-12.91L96.65,47c2-3.14,6.12-5.1,10.85-5.1h18c7.56-.19,14.92,5.92,10.85,12.91L116.2,86.94H127c5.43,0,10.07,2.61,11.55,6.49a7.42,7.42,0,0,1-2.37,8.36Zm53-126.31c-2.85,0-5.06,1.15-5.77,2.28L67.25,105.22a1.15,1.15,0,0,0-.07,1.33c.66,1.18,2.87,2.39,5.83,2.39h29.41L81.69,142.05,132.17,97.3c1.05-.93.82-1.52.74-1.74-.48-1.27-2.73-2.62-5.94-2.62H105.36l25.9-41.36a1.16,1.16,0,0,0,.06-1.33c-.65-1.18-2.87-2.39-5.83-2.39Z" />
    </symbol>
    <symbol id="healthcare" viewBox="0 0 200 200">
      <path d="M114.32,33.94a6,6,0,0,1,6,6V78.62c3.2,0,34.61,0,38.68,0a6,6,0,0,1,6,6v28.64a6,6,0,0,1-6,6c-4.23,0-35.31,0-38.68,0,0,3.19,0,34.6,0,38.68a6,6,0,0,1-6,6H85.68a6,6,0,0,1-6-6c0-4.23,0-35.32,0-38.68-3.2,0-34.61,0-38.68,0a6,6,0,0,1-6-6V84.62a6,6,0,0,1,6-6c4.23,0,35.31,0,38.68,0,0-3.19,0-34.62,0-38.68a6,6,0,0,1,6-6h28.64m0-6H85.68a12,12,0,0,0-12,12V72.62H41a12,12,0,0,0-12,12v28.64a12,12,0,0,0,12,12H73.68v32.68a12,12,0,0,0,12,12h28.64a12,12,0,0,0,12-12V125.26H159a12,12,0,0,0,12-12V84.62a12,12,0,0,0-12-12H126.32V39.94a12,12,0,0,0-12-12Z" />
    </symbol>
    <symbol id="housing" viewBox="0 0 200 200">
      <path d="M142.1,99.8l0-24.56h-4.84c0-2.53.07-5.11-1.84-8.51,3.37-4.21,2.9-13.11-2.91-20-4.89-5.53-13.44-11.64-21-8.88-2.13,1.53-2.23,7.14-1.64,10.51.77,10.13,12.76,22.89,22.17,20.55,1.23,2.28,1.18,4.08,1.17,6.28H127.3v9.37L100,56.51,42.13,115.89h16V168h83.5V115.89h16.11ZM133,63l-8.81-12.27a2,2,0,1,0-3.25,2.33l8.75,12.19c-8.88-.49-18.47-14.17-15.64-24C124.22,40.76,136.33,53.63,133,63Zm5.12,16.24V95.68l-6.77-7,0-9.49ZM76.39,162V134H90.05v28Zm59.27-52.11V162H94.05V130H72.39v32H64.16V109.89H56.35L100,65.11c11.87,12.19,31.87,32.75,43.6,44.78Z" />
      <path d="M106.27,125.29v22.79h22.78V125.29Zm9.39,18.79h-5.39v-5.4h5.39Zm0-9.4h-5.39v-5.39h5.39Zm9.39,9.4h-5.39v-5.4h5.39Zm0-9.4h-5.39v-5.39h5.39Z" />
      <path d="M100,88.15c-15.66.5-15.66,23.2,0,23.7C115.61,111.35,115.61,88.65,100,88.15Zm-2,19.44A7.88,7.88,0,0,1,92.36,102H98ZM98,98H92.36A7.88,7.88,0,0,1,98,92.41Zm4-5.59A7.88,7.88,0,0,1,107.54,98H102Zm0,15.18V102h5.59A7.88,7.88,0,0,1,102,107.59Z" />
    </symbol>
    <symbol id="lighting" viewBox="0 0 200 200">
      <path d="M99.94,23.94c-44.8-.08-66.77,55.41-34.62,86,14.11,13.34,10.4,30.74,10.85,48l12,12h23.76l12-12c.45-18.08-3.29-34.33,11.22-48.45C166.79,78.71,144.2,24,99.94,23.94Zm18,131.51c-2.87,2.85-5.48,5.49-8.49,8.49H90.66c-3-3-5.62-5.63-8.49-8.49C81.88,155.18,118.22,155.18,117.93,155.45Zm0-6.14H82.17v-9.26h35.76Zm13-44.09a43,43,0,0,0-13,28.83H105.42c7.38-12.52,9.31-22.69,6.11-32.17,15.46-10.7,6.71-39-7.64-47.41-2.09-1.36-9.26-5.69-13.91-4-5,1.79-7.94,10.92-8.25,12-4.18,12.54.82,30,11.61,37.8,4.12,3,8.16,4.25,12.56,3.73,2.79,8.48.47,17.71-7.52,30.13H82.13C80.59,104,56.4,105.75,56,73.94c-.49-23.62,20.34-44.47,43.94-44C138.81,30.23,158.91,77.63,130.93,105.22ZM95.73,77.79,103.61,98c-7.43-.8-12.7-7.68-15.41-15a29.55,29.55,0,0,1-.73-18.87C88.72,60,91,56.46,92,56.08c1.8-.21,4.78,1,8.61,3.41,11.07,6.37,18,28.09,8.69,36.6l-8-20.48C99.83,72,94.37,74.08,95.73,77.79Z" />
    </symbol>
    <symbol id="manufacturing" viewBox="0 0 200 200">
      <path d="M71,105.58c-27.68,4.44-24.8,44.36,3,45a22.88,22.88,0,0,0,3.08-.21C106.57,145.42,100.69,102.42,71,105.58Zm5.32,38.83c-23.29,2.27-25.67-32.08-2.24-33C94.45,111.71,96.6,141.28,76.3,144.41ZM71,105.58c-27.68,4.44-24.8,44.36,3,45a22.88,22.88,0,0,0,3.08-.21C106.57,145.42,100.69,102.42,71,105.58Zm5.32,38.83c-23.29,2.27-25.67-32.08-2.24-33C94.45,111.71,96.6,141.28,76.3,144.41Zm46.36-18.3c-1.13-5.26.15-15.43-8.11-14.67l-1.59.22a41.87,41.87,0,0,0-5.67-9.66c2.73-2.66,3.12-7.39-.17-9.76C101.82,88.65,95.5,80.45,90,88.92a41.77,41.77,0,0,0-10.8-2.83c0-3.87-2.94-7.4-7-6.81-6.32,1.2-16.56-.12-14.44,9.78a41.11,41.11,0,0,0-9.62,5.63c-2.67-2.75-7.42-3.2-9.81.13C34.69,100.14,26.5,106.45,35,112a41.13,41.13,0,0,0-2.83,10.78c-10.1.61-6.08,10.12-5.54,16.53.52,4.11,4.72,6,8.46,4.94a41.62,41.62,0,0,0,5.62,9.65c-2.73,2.66-3.15,7.4.16,9.78C46.16,167.21,52.5,175.42,58,167a41.52,41.52,0,0,0,10.83,2.85c0,3.87,3,7.38,7,6.77,6.24-1.2,16.52.11,14.46-9.69a41.46,41.46,0,0,0,9.69-5.66c2.65,2.72,7.37,3.08,9.72-.19,3.56-5.26,11.78-11.61,3.38-17.07a41.63,41.63,0,0,0,2.85-10.86C119.71,133.18,123.3,130.1,122.66,126.11Zm-11.94,23.67-5.86,7.66-5.11-3.89a39.41,39.41,0,0,1-16.07,9.38l.83,6.42L75,170.62l-.87-6.38a39.41,39.41,0,0,1-18-4.75l-4,5.16L44.5,158.8l3.92-5.17a39.42,39.42,0,0,1-9.34-16l-6.49.85-1.27-9.55,6.46-.89a39.32,39.32,0,0,1,4.71-17.92l-5.21-4,5.86-7.65,5.2,4a39.24,39.24,0,0,1,16-9.36l-.85-6.51L73,85.26l.88,6.44a39.46,39.46,0,0,1,18,4.69l4-5.17,7.65,5.85-3.91,5.16a39.42,39.42,0,0,1,9.4,16l6.38-.87,1.31,9.58-6.37.88a39.36,39.36,0,0,1-4.71,18ZM71,105.58c-27.68,4.44-24.8,44.36,3,45a22.88,22.88,0,0,0,3.08-.21C106.57,145.42,100.69,102.42,71,105.58Zm5.32,38.83c-23.29,2.27-25.67-32.08-2.24-33C94.45,111.71,96.6,141.28,76.3,144.41Z" />
      <path d="M122.91,103c-1.48.21-8.35-3-9.82-3.44-3.36-1.22-4.46-5.37-2.77-8.37a36.11,36.11,0,0,1-6.62-6.39c-7.6,4-9.47-5.13-11.81-10.09a5.85,5.85,0,0,1,4-7.89,36.63,36.63,0,0,1-.16-9.18c-8.24-2.52-3.08-10.33-1.23-15.5,1.22-3.37,5.39-4.45,8.4-2.76a36.53,36.53,0,0,1,6.36-6.61c-4-7.6,5.13-9.48,10.09-11.82a5.84,5.84,0,0,1,7.88,4,37.27,37.27,0,0,1,9.2-.18c2.52-8.2,10.33-3,15.48-1.2,3.35,1.22,4.46,5.36,2.78,8.35a36.66,36.66,0,0,1,6.66,6.39c7.56-4,9.43,5.19,11.76,10.12a5.82,5.82,0,0,1-3.9,7.85,36.72,36.72,0,0,1,.17,9.25c8.13,2.53,3,10.35,1.14,15.46-1.21,3.32-5.32,4.46-8.31,2.79a36.16,36.16,0,0,1-6.42,6.66,5.83,5.83,0,0,1-2.48,8.42c-5.06,2-12.67,7.45-15.5-.59a36.55,36.55,0,0,1-9.23.15A6,6,0,0,1,122.91,103Zm.13-6Zm-7.42-2.91,7.08,2.78,2-5.2a34.61,34.61,0,0,0,16.62-.28l2.22,5.09,7-3-2.22-5.09a34.53,34.53,0,0,0,11.56-12l5.15,2,2.78-7.08-5.15-2a34.57,34.57,0,0,0-.32-16.64l5.09-2.22-3-7-5.09,2.22a34.62,34.62,0,0,0-12-11.52l2-5.19-7.08-2.79-2,5.21a34.53,34.53,0,0,0-16.6.33l-2.24-5.15-7,3,2.25,5.16a34.59,34.59,0,0,0-11.5,11.94l-5.24-2.06-2.78,7.09,5.24,2.06a34.66,34.66,0,0,0,.3,16.57l-5.16,2.25,3,7,5.15-2.25a34.56,34.56,0,0,0,11.93,11.53Zm-.13.33h0Zm49.42-15.68h0Zm3.27-7.29ZM168,71ZM96.8,51.59Zm3.27-7.29Zm64.66-1Zm-15-14.21ZM132.56,81.55c-21.25.18-27.82-29.79-8-38.36C154.73,32.25,164.55,79.53,132.56,81.55Zm-.05-34C110.12,49,117,82,138.14,74.38,152,68.62,147.29,47.2,132.51,47.52Z" />
    </symbol>
    <symbol id="phone" viewBox="0 0 200 200">
      <path d="M120.06,133.8c-5.22-12.61-13.23-21.55-18.87-21.55A4.61,4.61,0,0,0,98,113.51l-6.91,2.86c-10.62,2.69-22.7-23.09-12.86-31.05,1.18-.42,7.4-3.19,8.54-3.21C99.6,76.85,80.19,29.51,67.52,31c-2.29.21-9.37,4.17-11.82,4.82C11,60.93,59.36,180.7,110.2,167.33c1.16-.36,9.17-4,10.22-3.92C126,161.09,125.88,147.83,120.06,133.8ZM101.8,118.45c7.84,2.29,20.11,32,16.2,39.12C110.17,155.28,97.89,125.54,101.8,118.45ZM68.12,37.14c7.84,2.29,20.11,32,16.21,39.13C76.49,74,64.21,44.24,68.12,37.14ZM107.9,161.78C65,172.54,17.36,58.16,61.65,39.8,60.51,50.74,69.32,72,77.86,79,57,87.19,75.05,130.85,95.32,121.1,94.19,132,103,153.32,111.54,160.27Z" />
      <path d="M112.5,92.66a3,3,0,0,1-1.17-5.76l38.26-16.15a3,3,0,0,1,2.34,5.52L113.67,92.43A3,3,0,0,1,112.5,92.66Z" />
      <path d="M107,78.85a3,3,0,0,1-2.52-4.61l22.16-34.79a3,3,0,0,1,5.06,3.22L109.57,77.46A3,3,0,0,1,107,78.85Z" />
      <path d="M158.48,115a2.94,2.94,0,0,1-.65-.07L117.56,106a3,3,0,0,1,1.29-5.86l40.28,8.93A3,3,0,0,1,158.48,115Z" />
    </symbol>
    <symbol id="star-filled" viewBox="0 0 200 200">
      <path d="M104.76,41.68l11.65,35.88A5,5,0,0,0,121.17,81h37.72a5,5,0,0,1,2.94,9l-30.52,22.17a5,5,0,0,0-1.82,5.59l11.66,35.88a5,5,0,0,1-7.69,5.59l-30.52-22.17a5,5,0,0,0-5.88,0L66.54,159.29a5,5,0,0,1-7.69-5.59l11.66-35.88a5,5,0,0,0-1.82-5.59L38.17,90.06a5,5,0,0,1,2.94-9H78.83a5,5,0,0,0,4.76-3.45L95.24,41.68A5,5,0,0,1,104.76,41.68Z" />
    </symbol>
    <symbol id="star" viewBox="0 0 200 200">
      <path d="M100,46.47c16.42,48.61,4.64,39.91,55.81,40.54-41,30.46-36.54,17-21.32,65.61-41.64-29.63-27.43-29.51-69,0C80.82,103.85,85.11,117.43,44.19,87c51.31-.58,39.4,7.93,55.81-40.54m0-8.24a4.92,4.92,0,0,0-4.76,3.45L83.59,77.56A5,5,0,0,1,78.83,81H41.11a5,5,0,0,0-2.94,9l30.52,22.17a5,5,0,0,1,1.82,5.59L58.85,153.7a5,5,0,0,0,7.69,5.59c.37.08,33.93-25.59,33.46-23.13,1.18-1.72,31.92,22.63,33.46,23.13a5,5,0,0,0,7.69-5.59l-11.66-35.88a5,5,0,0,1,1.82-5.59l30.52-22.17a5,5,0,0,0-2.94-9H121.17a5,5,0,0,1-4.76-3.45L104.76,41.68A4.92,4.92,0,0,0,100,38.23Z" />
    </symbol>
    <symbol id="transportation" viewBox="0 0 200 200">
      <path d="M89.9,109.25h-19a3,3,0,0,0-3,3v14a3,3,0,0,0,3,3h19a3,3,0,0,0,3-3v-14A3,3,0,0,0,89.9,109.25Zm-1,16h-17v-12h17Z" />
      <path d="M119.9,109.25h-19a3,3,0,0,0-3,3v14a3,3,0,0,0,3,3h19a3,3,0,0,0,3-3v-14A3,3,0,0,0,119.9,109.25Zm-1,16h-17v-12h17Z" />
      <path d="M149.9,109.25h-19a3,3,0,0,0-3,3v14a3,3,0,0,0,3,3h19a3,3,0,0,0,3-3v-14A3,3,0,0,0,149.9,109.25Zm-1,16h-17v-12h17Z" />
      <path d="M59.9,109.25H53.72a8,8,0,0,0-8,8l-.07,18.92a3,3,0,0,0,4.8,2.41l11.25-8.43a3,3,0,0,0,1.2-2.4V112.26A3,3,0,0,0,59.9,109.25Zm-1,18-9.24,6.93.06-16.93c.24-5.1,5.73-3.88,9.18-4Z" />
      <path d="M144.59,58.26A3.5,3.5,0,0,0,148,55.61c8.22-1.6,14.86-4.1,23-4.11v-3c-8.51,0-15.15,2.51-23.61,4.17a3.52,3.52,0,0,0-6.16,1.13c-8.79,1.71-31.53,3.14-49.22,2.63-1-2.73-5.27-2.85-6.38-.17-31.83-.74-34.91-6-56.63-7.76v3c21.37,1.84,24.75,7,56.62,7.77a3.47,3.47,0,0,0,.27.46L64.11,97H53.82a21,21,0,0,0-21,21v31.5c-3.93,0-3.92,6,0,6a6,6,0,0,0,6,6H49.68C52.65,174,71,174,74,161.5h47.72c3,12.5,21.31,12.5,24.28,0h14.86a6,6,0,0,0,6-6c3.63.32,4.44-1.79,4.18-5,0-2.26-2.18-3.29-4.18-3V118a21,21,0,0,0-21-21H121.64L144.3,58.24A1.42,1.42,0,0,0,144.59,58.26Zm-77,103.24c-4,7.51-15.34,1.65-11.53-6C60.1,148,71.41,153.86,67.58,161.5Zm72,0c-4.05,7.51-15.34,1.65-11.53-6C132.1,148,143.41,153.86,139.58,161.5Zm6.24-58.5a15,15,0,0,1,15,15v37.5H146c-3-12.5-21.32-12.5-24.28,0H74c-3-12.5-21.32-12.5-24.28,0H38.82V118a15,15,0,0,1,15-15Zm-27.66-6H67.58l20.9-35.75a3.48,3.48,0,0,0,3.38-1.82c17.91.51,40.85-.92,49.82-2.66Z" />
    </symbol>
    <symbol id="wastewater" viewBox="0 0 200 200">
      <path d="M162.88,162.93c-6,9.46-15.42,1-17.52-5.71-4-10.15-10.06-7.73-13.36,1.6,2.6-32.14-3.25-65-40.89-69.52,2.1-21.9-4-62.65-12.11-60.3H29V129H79c2.2,0,4.26-2.32,6-6.38,16.48,4.24,16.64,19.75,16,33.92C92.13,137.92,88.12,167.77,77.82,167c-10.56,1.69-9.94-11.4-19.8-11.75-5.75-.45-10,10.55-14.78,11.79-5.55-.8-6.19-4.35-14.24-4.12v4c7.68-.19,7.63,3.79,14.24,4.12,5.71.42,10-10.65,14.78-11.79,3.19-.31,5.34,4.11,7.7,6.64,8.61,10.68,22.31,3.63,26.36-6.79,1-1.69,2.41-4.24,3-4.5,2,1.89,3.66,7.19,5.76,10.57,3.08,5.13,11.44,5.9,16.15,5.9,6.84.14,16.24-1.59,19.51-12.35,4.94-13.18,4.41,13.41,20.07,12.3,6,1.7,11.24-9.72,14.41-10.41v-4C167.75,156.56,165,160,162.88,162.93ZM79,36.62c6.12,13.74,6.83,35.43,6.1,52.49H72.9C72.16,72.06,72.88,50.34,79,36.62ZM35,123V35H73.12c-8.44,15.75-8.44,72.25,0,88Zm91,42.63c-6.16,1.93-13.44,1.94-19-.34.81-24.4,1.73-49.11-30.08-49.29a106.26,106.26,0,0,1-3.6-20.89C125.45,92.16,127.91,123,126,165.63Z" />
    </symbol>
    <symbol id="water" viewBox="0 0 200 200">
      <path d="M100,37.37c16.31,19.3,45.41,63.32,44,82.57-2.41,58.36-85.59,58.36-88,0,0-23,28.48-63.25,44-82.57m0-9.43s-50,58.63-50,92a50,50,0,0,0,100,0c0-33.76-50-92-50-92Z" />
    </symbol>
    <symbol id="website" viewBox="0 0 200 200">
      <path d="M170.94,97C170.27,50.08,118.33,15.87,75,33.54,14.18,56,14.18,144.06,75,166.46,121,185,174.18,146.58,170.94,97ZM145.77,53.86a65.61,65.61,0,0,1,6.58,7.61H142a66.07,66.07,0,0,0-13.73-20A64.35,64.35,0,0,1,145.77,53.86ZM125,97a180.82,180.82,0,0,0-2.76-29.53h15.83A87.49,87.49,0,0,1,144,97Zm19,6a87.62,87.62,0,0,1-5.87,29.47H122.23A181.21,181.21,0,0,0,125,103ZM130.44,53.25a65.14,65.14,0,0,1,4.91,8.22H121c-2.3-10.06-5.47-18.37-9.21-24.06C118.69,40.28,125.09,45.67,130.44,53.25ZM80.93,97a173,173,0,0,1,2.84-29.53h32.36A173,173,0,0,1,119,97Zm38,6a172.36,172.36,0,0,1-2.83,29.47H83.76A172.36,172.36,0,0,1,80.93,103Zm-19-68c4.71-1.43,13.53,17.49,14.9,26.47H85.06C86.4,52.52,95.31,33.52,99.94,35ZM88.12,37.41c-3.74,5.69-6.91,14-9.21,24.06H64.55C69.47,51.27,78.65,41.08,88.12,37.41ZM74.92,97H56a87.49,87.49,0,0,1,5.9-29.53H77.68A180.82,180.82,0,0,0,74.92,97Zm2.75,35.47H61.82A87.62,87.62,0,0,1,56,103h19A181.21,181.21,0,0,0,77.67,132.47ZM53.86,54.23A64.37,64.37,0,0,1,71.54,41.55,66.27,66.27,0,0,0,57.9,61.47H47.65A65.26,65.26,0,0,1,53.86,54.23ZM39.16,77.11a64.86,64.86,0,0,1,4.55-9.64H55.45A94.75,94.75,0,0,0,50,97H35.07A64.16,64.16,0,0,1,39.16,77.11Zm0,45.77A64.32,64.32,0,0,1,35.07,103H50a94.37,94.37,0,0,0,5.48,29.47H43.68A63.23,63.23,0,0,1,39.15,122.88Zm15.08,23.26a64.77,64.77,0,0,1-6.62-7.67H57.87a66.44,66.44,0,0,0,13.66,20A64.36,64.36,0,0,1,54.23,146.14Zm15.23.61a66.06,66.06,0,0,1-4.94-8.28H78.9c2.29,10.09,5.47,18.42,9.22,24.12C81.21,159.72,74.81,154.33,69.46,146.75ZM100,165c-4.73,1.51-13.6-17.54-15-26.53h29.8C113.52,147.42,104.65,166.39,100,165Zm11.78-2.41c3.75-5.7,6.93-14,9.22-24.12h14.38C130.46,148.68,121.27,158.91,111.78,162.59Zm34.36-16.82a64.59,64.59,0,0,1-17.88,12.78A66.39,66.39,0,0,0,142,138.47h10.36A65.18,65.18,0,0,1,146.14,145.77Zm14.7-22.88a64,64,0,0,1-4.52,9.58H144.47A94.37,94.37,0,0,0,150,103h15A64.16,64.16,0,0,1,160.84,122.89ZM150,97a94.75,94.75,0,0,0-5.5-29.53h11.84A64.72,64.72,0,0,1,164.93,97Z" />
    </symbol>
  </defs>
</svg>