<svg style="display: none" aria-hidden="true" xmlns="http://www.w3.org/2000/svg"><defs><symbol id="agriculture" viewBox="0 0 200 200"><path d="M186,55.34C182.29,49.77,159.72,49,159.5,49c-27.36.37-48.91,15.57-59.5,37.81C89.4,64.57,67.87,49.37,40.5,49c-.22,0-22.79.77-26.5,6.34-3.93,5.9,7.7,30.76,7.82,31,11,23.94,49.74,40.34,75.18,24.72v33C60.89,145.42,41,171,41,171H159s-19-25.61-56-26.94v-33c25.58,15.6,64.06-.74,75.18-24.72C178.3,86.1,189.93,61.24,186,55.34ZM93,106.52C57,123,22.29,93.18,19.1,58.65,52.63,46,92.22,67.54,97.48,99.5L50.28,77.29c-3.49-1.72-6.11,3.82-2.56,5.42L95,104.94A11.67,11.67,0,0,1,93,106.52Zm79.8-22.86c-2.64,5.28-12.14,17.84-24.64,23-14.9,5.74-34.07,6.22-43.14-1.72l47.24-22.23c3.54-1.59.94-7.14-2.56-5.42L102.52,99.5c5.32-32,44.83-53.49,78.38-40.85C181.26,61.94,176.91,75.49,172.82,83.66Z" xmlns="http://www.w3.org/2000/svg" /></symbol><symbol id="button-accept-filled" viewBox="0 0 200 200"><path d="M100,35a65,65,0,1,1-65,65,65.08,65.08,0,0,1,65-65m0-6a71,71,0,1,0,71,71,71,71,0,0,0-71-71Z" /><path d="M145.48,84.74,98,132.2l-6.28,6.28a11.59,11.59,0,0,1-16.59.05L69,132.41,49.69,113.07a12,12,0,0,1,0-17l4.25-4.24a12,12,0,0,1,17,0l12.51,12.51,40.84-40.85a12,12,0,0,1,17,0l4.25,4.25A12,12,0,0,1,145.48,84.74Z" /></symbol><symbol id="button-accept" viewBox="0 0 200 200"><path d="M100,35a65,65,0,1,1-65,65,65.08,65.08,0,0,1,65-65m0-6a71,71,0,1,0,71,71,71,71,0,0,0-71-71Z" /><path d="M132.75,66A6,6,0,0,1,137,67.76L141.24,72a6,6,0,0,1,0,8.49L93.78,128l-6.28,6.28A6,6,0,0,1,83.24,136h-.41a5.93,5.93,0,0,1-3.44-1.68l-6.12-6.12L53.94,108.83a6,6,0,0,1,0-8.48l4.26-4.25a5.93,5.93,0,0,1,4.23-1.74,6,6,0,0,1,4.25,1.74l12.51,12.51,4.24,4.25,4.24-4.25L128.5,67.77A5.93,5.93,0,0,1,132.75,66m0-6a12,12,0,0,0-8.49,3.5L83.42,104.37,70.91,91.86a12,12,0,0,0-17,0L49.69,96.1a12,12,0,0,0,0,17L69,132.41l6.12,6.12a11.9,11.9,0,0,0,7.09,3.41c.33,0,.67,0,1,0a12,12,0,0,0,8.5-3.5L98,132.2l47.46-47.46a12,12,0,0,0,0-17l-4.25-4.25a12,12,0,0,0-8.48-3.5Z" /></symbol><symbol id="button-cancel-filled" viewBox="0 0 200 200"><path d="M100,35a65,65,0,1,1-65,65,65.08,65.08,0,0,1,65-65m0-6a71,71,0,1,0,71,71,71,71,0,0,0-71-71Z" /><path d="M133.18,62.57l4.25,4.25a12,12,0,0,1,0,17l-16.27,16.26,16.27,16.26a12,12,0,0,1,0,17l-4.25,4.25a12,12,0,0,1-17,0L100,121.26,83.69,137.53a12,12,0,0,1-17,0l-4.25-4.25a12,12,0,0,1,0-17l16.27-16.26L62.47,83.79a12,12,0,0,1,0-17l4.25-4.25a12,12,0,0,1,17,0L100,78.84l16.26-16.27A12,12,0,0,1,133.18,62.57Z" /></symbol><symbol id="button-cancel" viewBox="0 0 200 200"><path d="M100,35a65,65,0,1,1-65,65,65.08,65.08,0,0,1,65-65m0-6a71,71,0,1,0,71,71,71,71,0,0,0-71-71Z" /><path d="M124.7,59.07v6a5.93,5.93,0,0,1,4.24,1.75l4.24,4.24a6,6,0,0,1,0,8.48L116.92,95.81l-4.24,4.24,4.24,4.24,16.26,16.27a6,6,0,0,1,0,8.48l-4.24,4.24a6,6,0,0,1-8.48,0L104.19,117,100,112.78,95.71,117,79.44,133.28a6,6,0,0,1-8.48,0L66.72,129a6,6,0,0,1,0-8.48L83,104.29l4.24-4.24L83,95.81,66.72,79.54a6,6,0,0,1,0-8.48L71,66.82a6,6,0,0,1,8.48,0L95.71,83.08,100,87.32l4.24-4.24,16.27-16.26a5.93,5.93,0,0,1,4.24-1.75v-6m0,0a12,12,0,0,0-8.49,3.5L100,78.84,83.69,62.57a12,12,0,0,0-17,0l-4.25,4.25a12,12,0,0,0,0,17l16.27,16.26L62.47,116.31a12,12,0,0,0,0,17l4.25,4.25a12,12,0,0,0,17,0L100,121.26l16.26,16.27a12,12,0,0,0,17,0l4.25-4.25a12,12,0,0,0,0-17l-16.27-16.26,16.27-16.26a12,12,0,0,0,0-17l-4.25-4.25a12,12,0,0,0-8.48-3.5Z" /></symbol><symbol id="button-minus-filled" viewBox="0 0 200 200"><path d="M100.05,35a65,65,0,1,1-65,65,65.08,65.08,0,0,1,65-65m0-6a71,71,0,1,0,71,71,71,71,0,0,0-71-71Z" /><rect x="50.05" y="85.05" width="100" height="30" rx="12" /></symbol><symbol id="button-minus" viewBox="0 0 200 200"><path d="M100.05,35a65,65,0,1,1-65,65,65.08,65.08,0,0,1,65-65m0-6a71,71,0,1,0,71,71,71,71,0,0,0-71-71Z" /><path d="M138.05,91.05a6,6,0,0,1,6,6v6a6,6,0,0,1-6,6h-76a6,6,0,0,1-6-6v-6a6,6,0,0,1,6-6h76m0-6h-76a12,12,0,0,0-12,12v6a12,12,0,0,0,12,12h76a12,12,0,0,0,12-12v-6a12,12,0,0,0-12-12Z" /></symbol><symbol id="button-plus-filled" viewBox="0 0 200 200"><path d="M100.05,35a65,65,0,1,1-65,65,65.08,65.08,0,0,1,65-65m0-6a71,71,0,1,0,71,71,71,71,0,0,0-71-71Z" /><path d="M150.05,97.05v6a12,12,0,0,1-12,12h-23v23a12,12,0,0,1-12,12h-6a12,12,0,0,1-12-12v-23h-23a12,12,0,0,1-12-12v-6a12,12,0,0,1,12-12h23v-23a12,12,0,0,1,12-12h6a12,12,0,0,1,12,12v23h23A12,12,0,0,1,150.05,97.05Z" /></symbol><symbol id="button-plus" viewBox="0 0 200 200"><path d="M100.05,35a65,65,0,1,1-65,65,65.08,65.08,0,0,1,65-65m0-6a71,71,0,1,0,71,71,71,71,0,0,0-71-71Z" /><path d="M103.05,56.05a6,6,0,0,1,6,6v29h29a6,6,0,0,1,6,6v6a6,6,0,0,1-6,6h-29v29a6,6,0,0,1-6,6h-6a6,6,0,0,1-6-6v-29h-29a6,6,0,0,1-6-6v-6a6,6,0,0,1,6-6h29v-29a6,6,0,0,1,6-6h6m0-6h-6a12,12,0,0,0-12,12v23h-23a12,12,0,0,0-12,12v6a12,12,0,0,0,12,12h23v23a12,12,0,0,0,12,12h6a12,12,0,0,0,12-12v-23h23a12,12,0,0,0,12-12v-6a12,12,0,0,0-12-12h-23v-23a12,12,0,0,0-12-12Z" /></symbol><symbol id="circular-economy" viewBox="0 0 200 200"><path d="M100,29a71,71,0,0,0-71,71c3.74,94.18,138.27,94.15,142,0A71,71,0,0,0,100,29Zm0,132a61.06,61.06,0,0,1-61-61c3.34-80.93,118.67-80.9,122,0A61.06,61.06,0,0,1,100,161Z" /><path d="M114,108.41l-11-9.78V67.1c6.24,1.17,10.93,6,10.93,11.73,0,3.89,6.06,3.89,6,0,0-9-7.36-16.51-16.93-17.8,0-2.41.7-7.15-3-7.08s-3,4.7-3,7.1c-15.33,1.63-22.78,20.5-10.87,30.63L97,101.33V133c-6.17-1.22-10.78-6-10.78-11.7,0-3.89-6.06-3.89-6,0,0,9,7.28,16.43,16.78,17.78,0,2.39-.64,7,3,6.91s3-4.51,3-6.89C118.38,137.53,125.93,118.57,114,108.41ZM90.07,87.19C82.26,80.52,87,68.73,97,67.13V93.3ZM103,133V106.65l7,6.24C117.83,119.61,113,131.46,103,133Z" /></symbol><symbol id="clothing" viewBox="0 0 200 200"><path d="M100,171.38c-38,0-38-5.52-38-7.88V105.06l-4.47,4.85a6,6,0,0,1-8.27.54L32.35,96.25a6,6,0,0,1-.66-8.54L61.76,53.24a8,8,0,0,1,6-2.74H90.86l.68,2.06a9,9,0,0,0,16.92,0l.68-2.06h23.27a8,8,0,0,1,6,2.74l30.08,34.47a6,6,0,0,1-.67,8.54l-16.9,14.19a6,6,0,0,1-8.28-.53L138,104.84V163.5C138,165.86,138,171.38,100,171.38Zm-32-8.92c2.85,1.3,13.81,2.92,32,2.92s29.15-1.62,32-2.92V101a4.5,4.5,0,0,1,7.81-3l7.27,7.91L164,91.65,133.91,57.19a2,2,0,0,0-1.5-.69H113.3a15.15,15.15,0,0,1-26.6,0H67.79a2,2,0,0,0-1.5.69L36.21,91.66l16.9,14.19,7.08-7.68a4.5,4.5,0,0,1,7.81,3Z" /></symbol><symbol id="consumer-goods" viewBox="0 0 200 200"><path d="M122.52,110v51.43h17L154.64,110Zm14,47.43h-10V114h22.77Z" /><path d="M61.87,81.45C69.9,71.9,59.64,57,48,53.55c-.09,0-9.94-3.2-13.3.05S34,65.49,34,65.58C36.43,75.2,44.47,82.88,53.32,84c-4,3.79-7.09,11-7,16H34.35a4,4,0,0,0-3.84,5.13L47.89,164.2a10,10,0,0,0,9.59,7.18h85a10,10,0,0,0,9.59-7.18l17.38-59.12a4,4,0,0,0-3.84-5.13H145.87L109.69,52.51c3.13-6.75-6.78-11.95-10.57-5.63-3.72-6.22-13.5-1.3-10.66,5.44L52.21,100h-1.9c-.41-7.13,7.2-15.32,10.79-17.85M42.67,73.77C39.51,71,35.6,60,37.45,56.48,48.94,54.1,63.76,66.17,60,77.27l-10.47-11A2,2,0,0,0,46.67,69L56.92,79.79C51.82,80.85,47,78.12,42.67,73.77ZM93.25,56a6,6,0,0,0,5.87-2.83A6,6,0,0,0,104.78,56l33.53,44H59.76Zm53.1,106.55a4,4,0,0,1-3.83,2.88h-85a4,4,0,0,1-3.83-2.88L37,106H163Z" /><path d="M45.36,110l15.12,51.43h17V110Zm28.12,47.43h-10L50.71,114H73.48Z" /><path d="M84,110v51.42h32V110Zm28,47.42H88V114h24Z" /></symbol><symbol id="ecology" viewBox="0 0 200 200"><path d="M100.28,164.38H40.51a16.38,16.38,0,0,1-13.69-7.08,15.85,15.85,0,0,1-.57-16.92l12.81-22.19s-3-1.72-3-1.73a2.37,2.37,0,0,1,.13-4.18L58,101.37a2.37,2.37,0,0,1,3.43,2l1.45,24.35c-.51,4.41-4.35,1.85-6.53.49L47,144.37s53.24,0,53.24,0S100.29,164.37,100.28,164.38ZM44.53,116.72s-14.81,25.66-14.82,25.66c-4.83,7.71,1.6,18.42,10.71,18,0,0,55.87,0,55.87,0s0-12,0-12-56.19,0-56.18,0l14.81-25.65a2.38,2.38,0,0,0,3.56-2.2l-.65-10.88a2.38,2.38,0,0,0-3.43-2l-9.75,4.88A2.38,2.38,0,0,0,44.53,116.72Z" /><path d="M131.77,169.53c-28.41-19.75-28.41-11.09,0-30.84a2.37,2.37,0,0,1,3.68,2v3.43s18.69,0,18.69,0S127.52,98,127.54,98l17.31-10s30.09,52.12,30.1,52.12a16,16,0,0,1-2.55,19.37,15.64,15.64,0,0,1-11.31,4.63H135.46s0,3.43,0,3.44A2.38,2.38,0,0,1,131.77,169.53Zm-13.1-13.43,9.1,6a2.38,2.38,0,0,0,3.69-2s29.63,0,29.63,0c9,.39,15.11-10.63,10.39-18,0,0-28.09-48.66-28.1-48.66s-10.39,6-10.38,6,28.1,48.65,28.08,48.65H131.46a2.38,2.38,0,0,0-3.68-2l-9.11,6A2.38,2.38,0,0,0,118.67,156.1Z" /><path d="M73.37,97.2s-17.32-10-17.31-10L86.15,35.08c5.62-10.56,22.07-10.51,27.71,0,0,0,12.8,22.21,12.82,22.2,2.14-1.37,6-3.92,6.53.48C130.46,92,137.53,87.91,106.5,73.17c-3.55-2.58.59-4.73,2.85-5.9L100,51.09S73.39,97.21,73.37,97.2ZM61.52,85.74l10.38,6S100,43.07,100,43.09l14.81,25.65a2.37,2.37,0,0,0,.12,4.18c14.41,7.26,13,8.27,13.84-8a2.38,2.38,0,0,0-3.57-2.2L110.4,37.08c-4.24-7.87-16.57-7.93-20.79,0C89.61,37.08,61.51,85.74,61.52,85.74Z" /><path d="M117.34,86.18c-3.37-2.42-12.23-1-16,.48-5.3,2-11.4,7-15.16,12.34-7,10-7.82,21.3-2.28,26.94a21.56,21.56,0,0,1-5.66,5.5c-4.74,3.16-7.15,1.68-8.24-.09l-1.55,6.47c1.16-.55,1.71-.41,3.54-.26a15.17,15.17,0,0,0,8.47-2.79,25.54,25.54,0,0,0,6.71-6.54,13.26,13.26,0,0,0,5.57,1.16A19.05,19.05,0,0,0,99,128.25a26,26,0,0,0,7.27-4,30.88,30.88,0,0,0,6.1-6.38c4-5.54,6.29-10.67,7.28-16.13S121.07,88.86,117.34,86.18ZM115.7,101a30.1,30.1,0,0,1-2.27,7.19,42.52,42.52,0,0,1-4.32,7.33,24.71,24.71,0,0,1-11.46,9,12.33,12.33,0,0,1-8.29.35l13.5-19.89a2,2,0,0,0-3.31-2.25L86.13,122.47C82.7,118,83.94,109.1,89.41,101.3c3.3-4.69,8.77-9.18,13.31-10.91a28.61,28.61,0,0,1,9-1.52,6.62,6.62,0,0,1,3.28.56C116.19,90.28,116.92,94.26,115.7,101Z" /></symbol><symbol id="education" viewBox="0 0 200 200"><path d="M97,171s6,0,6,0Z" /><path d="M158,73V53c-33.21-1-54.49,6.91-58,12.81C94.82,59.87,81,53,45,53H42V73H29v98H171V73Zm-55,0c0-.14.57-13.46,49-14v92c-28.54.31-42.36,5.09-49,10ZM48,59c48.43.52,49,13.84,49,14v88.07c-6.64-5-20.46-9.74-49-10ZM35,165V79h7v78c25.78-.7,45.64,4.22,50.07,8Zm130,0H107.93c4.36-3.74,24.35-8.72,50.07-8V79h7Z" /><path d="M88,85c-6.88-2.72-10.7-6.11-32-6-3.88.06-3.9-6.06,0-6,21.07,0,28.36,3.32,33.54,6.43C92.15,80.87,90.92,85.11,88,85Z" /><path d="M88,105c-6.88-2.72-10.7-6.11-32-6-3.88.06-3.9-6.06,0-6,21.07,0,28.36,3.32,33.54,6.43C92.15,100.87,90.92,105.11,88,105Z" /><path d="M88,125c-6.88-2.72-10.7-6.11-32-6-3.88.06-3.9-6.06,0-6,21.07,0,28.36,3.32,33.54,6.43C92.15,120.87,90.92,125.11,88,125Z" /><path d="M88,145c-6.88-2.72-10.7-6.11-32-6-3.88.06-3.9-6.06,0-6,21.07,0,28.36,3.32,33.54,6.43C92.15,140.87,90.92,145.11,88,145Z" /><path d="M112,85c-2.91.11-4.16-4.13-1.54-5.57C115.64,76.32,122.93,73,144,73c3.88,0,3.9,6.06,0,6C122.69,78.89,118.9,82.28,112,85Z" /><path d="M112,105c-2.91.11-4.16-4.13-1.54-5.57C115.64,96.32,122.93,93,144,93c3.88,0,3.9,6.06,0,6C122.69,98.89,118.9,102.28,112,105Z" /><path d="M112,125c-2.91.11-4.16-4.13-1.54-5.57,5.18-3.11,12.47-6.43,33.54-6.43,3.88,0,3.9,6.06,0,6C122.69,118.89,118.9,122.28,112,125Z" /><path d="M112,145c-2.91.11-4.16-4.13-1.54-5.57,5.18-3.11,12.47-6.43,33.54-6.43,3.88-.05,3.9,6.06,0,6C122.69,138.89,118.9,142.28,112,145Z" /></symbol><symbol id="energy" viewBox="0 0 200 200"><path d="M54.5,171.23,91.58,112H73c-7.55.19-14.92-5.92-10.85-12.9L96.65,44c2-3.14,6.12-5.09,10.85-5.09h18c7.56-.2,14.92,5.92,10.85,12.9L116.2,84H127c5.43,0,10.07,2.61,11.55,6.49a7.42,7.42,0,0,1-2.37,8.36Zm53-126.3c-2.85,0-5.06,1.14-5.77,2.28L67.25,102.28a1.15,1.15,0,0,0-.07,1.33C67.84,104.8,70.05,106,73,106h29.41L81.69,139.11l50.48-44.75c1.05-.92.82-1.52.74-1.74C132.43,91.35,130.18,90,127,90H105.36l25.9-41.35a1.16,1.16,0,0,0,.06-1.33c-.65-1.19-2.87-2.39-5.83-2.39Z" /></symbol><symbol id="healthcare" viewBox="0 0 200 200"><path d="M114.32,35a6,6,0,0,1,6,6V79.68c3.2,0,34.61,0,38.68,0a6,6,0,0,1,6,6v28.64a6,6,0,0,1-6,6c-4.23,0-35.31,0-38.68,0,0,3.2,0,34.61,0,38.68a6,6,0,0,1-6,6H85.68a6,6,0,0,1-6-6c0-4.23,0-35.31,0-38.68-3.2,0-34.61,0-38.68,0a6,6,0,0,1-6-6V85.68a6,6,0,0,1,6-6c4.23,0,35.31,0,38.68,0,0-3.19,0-34.61,0-38.68a6,6,0,0,1,6-6h28.64m0-6H85.68a12,12,0,0,0-12,12V73.68H41a12,12,0,0,0-12,12v28.64a12,12,0,0,0,12,12H73.68V159a12,12,0,0,0,12,12h28.64a12,12,0,0,0,12-12V126.32H159a12,12,0,0,0,12-12V85.68a12,12,0,0,0-12-12H126.32V41a12,12,0,0,0-12-12Z" /></symbol><symbol id="lighting" viewBox="0 0 200 200"><path d="M99.94,25c-44.8-.08-66.77,55.41-34.62,86,14.11,13.34,10.4,30.74,10.85,48l12,12h23.76l12-12c.45-18.07-3.29-34.33,11.22-48.45C166.79,79.77,144.2,25.1,99.94,25Zm18,131.51L109.44,165H90.66c-3-3-5.62-5.63-8.49-8.49C81.88,156.25,118.22,156.25,117.93,156.51Zm0-6.14H82.17v-9.26h35.76Zm13-44.09a43,43,0,0,0-13,28.83H105.42c7.38-12.52,9.31-22.69,6.11-32.17,15.46-10.69,6.71-39-7.64-47.41-2.09-1.36-9.26-5.69-13.91-4-5,1.79-7.94,10.92-8.25,12-4.18,12.55.82,30,11.61,37.8,4.12,3,8.16,4.25,12.56,3.73,2.79,8.48.47,17.71-7.52,30.13H82.13C80.59,105,56.4,106.81,56,75c-.49-23.62,20.34-44.46,43.94-44C138.81,31.29,158.91,78.69,130.93,106.28ZM95.73,78.85l7.88,20.23c-7.43-.79-12.7-7.67-15.41-15a29.55,29.55,0,0,1-.73-18.87c1.25-4.12,3.57-7.67,4.52-8,1.8-.21,4.78,1,8.61,3.41,11.07,6.38,18,28.09,8.69,36.6l-8-20.48C99.83,73,94.37,75.14,95.73,78.85Z" /></symbol><symbol id="manufacturing" viewBox="0 0 200 200"><path d="M114.55,112.51c8.26-.77,7,9.4,8.11,14.67.64,4-3,7.06-6.74,7a41.74,41.74,0,0,1-2.85,10.86c8.4,5.46.18,11.8-3.38,17.06-2.35,3.27-7.07,2.91-9.72.2A41.81,41.81,0,0,1,90.28,168c2.06,9.79-8.22,8.48-14.46,9.68-4,.61-7-2.89-7-6.76A41.54,41.54,0,0,1,58,168c-5.47,8.44-11.81.23-17.09-3.35-3.31-2.38-2.89-7.12-.16-9.78a41.76,41.76,0,0,1-5.62-9.64c-3.74,1-7.94-.84-8.46-4.94-.54-6.42-4.56-15.92,5.54-16.54A41.13,41.13,0,0,1,35,113c-8.51-5.5-.32-11.8,3.3-17.13,2.39-3.32,7.14-2.88,9.81-.13a41.11,41.11,0,0,1,9.62-5.63c-2.12-9.9,8.12-8.57,14.44-9.78,4.09-.59,7,2.94,7,6.82A41.36,41.36,0,0,1,90,90c5.49-8.47,11.81-.26,17.11,3.33,3.29,2.37,2.9,7.1.17,9.75a41.93,41.93,0,0,1,5.67,9.67l1.59-.22M56.12,160.56a39.53,39.53,0,0,0,18,4.74l.87,6.38,9.55-1.27L83.68,164a39.52,39.52,0,0,0,16.07-9.38l5.11,3.88,5.86-7.65-5.12-3.94a39.3,39.3,0,0,0,4.71-18l6.37-.87-1.31-9.59-6.38.88a39.45,39.45,0,0,0-9.4-16l3.91-5.15-7.65-5.86-4,5.17a39.32,39.32,0,0,0-18-4.68L73,86.32l-9.55,1.27.85,6.5a39.35,39.35,0,0,0-16,9.36l-5.2-4-5.86,7.65,5.21,4a39.32,39.32,0,0,0-4.71,17.92l-6.46.88,1.27,9.55,6.49-.84a39.55,39.55,0,0,0,9.34,16l-3.92,5.16,7.65,5.86ZM74,151.63c-27.85-.63-30.73-40.55-3-45,29.71-3.16,35.59,39.83,6.13,44.77A22.88,22.88,0,0,1,74,151.63Zm0-39.19c-23.43,1-21.05,35.3,2.24,33C96.6,142.34,94.45,112.77,74.06,112.44Z" /><path d="M122.91,104c-1.48.21-8.35-3-9.82-3.44-3.36-1.22-4.46-5.37-2.77-8.37a36.11,36.11,0,0,1-6.62-6.39c-7.6,4-9.47-5.13-11.81-10.09a5.85,5.85,0,0,1,4-7.89,36.62,36.62,0,0,1-.16-9.18c-8.24-2.52-3.08-10.32-1.23-15.49,1.22-3.38,5.39-4.46,8.4-2.76a36.27,36.27,0,0,1,6.36-6.62c-4-7.6,5.13-9.48,10.09-11.82a5.84,5.84,0,0,1,7.88,4,36.32,36.32,0,0,1,9.2-.18c2.52-8.2,10.33-3,15.48-1.2,3.35,1.21,4.46,5.35,2.78,8.34a36.66,36.66,0,0,1,6.66,6.39c7.56-4,9.43,5.19,11.76,10.12a5.83,5.83,0,0,1-3.9,7.86,36.63,36.63,0,0,1,.17,9.24c8.13,2.53,3,10.35,1.14,15.46-1.21,3.33-5.32,4.46-8.31,2.8a36.42,36.42,0,0,1-6.42,6.65,5.83,5.83,0,0,1-2.48,8.42c-5.06,2-12.67,7.46-15.5-.59a37,37,0,0,1-9.23.16A5.94,5.94,0,0,1,122.91,104Zm.13-6Zm-7.42-2.91,7.08,2.78,2-5.19a34.61,34.61,0,0,0,16.62-.29l2.22,5.1,7-3.05-2.22-5.08a34.7,34.7,0,0,0,11.56-12l5.15,2,2.78-7.08-5.15-2a34.53,34.53,0,0,0-.32-16.63l5.09-2.22-3-7-5.09,2.22a34.71,34.71,0,0,0-12-11.52l2-5.19-7.08-2.78-2,5.2a34.78,34.78,0,0,0-16.6.33l-2.24-5.15-7,3.05,2.25,5.15a34.62,34.62,0,0,0-11.5,12l-5.24-2.06-2.78,7.08,5.24,2.06a34.65,34.65,0,0,0,.3,16.57l-5.16,2.25,3,7,5.15-2.25a34.68,34.68,0,0,0,11.93,11.54Zm-.13.33h0ZM164.91,79.8Zm3.27-7.3ZM168,72ZM96.8,52.65h0Zm3.27-7.29Zm64.66-1Zm-15-14.21ZM132.56,82.61c-21.25.18-27.82-29.79-8-38.36C154.73,33.32,164.55,80.6,132.56,82.61Zm-.05-34C110.12,50,117,83.11,138.14,75.44,152,69.69,147.29,48.26,132.51,48.58Z" /></symbol><symbol id="star-filled" viewBox="0 0 200 200"><path d="M104.76,42.75l11.65,35.87a5,5,0,0,0,4.76,3.46h37.72a5,5,0,0,1,2.94,9L131.31,113.3a5,5,0,0,0-1.82,5.59l11.66,35.87a5,5,0,0,1-7.69,5.59l-30.52-22.17a5,5,0,0,0-5.88,0L66.54,160.35a5,5,0,0,1-7.69-5.59l11.66-35.87a5,5,0,0,0-1.82-5.59L38.17,91.12a5,5,0,0,1,2.94-9H78.83a5,5,0,0,0,4.76-3.46L95.24,42.75A5,5,0,0,1,104.76,42.75Z" /></symbol><symbol id="star" viewBox="0 0 200 200"><path d="M100,47.53c16.42,48.62,4.64,39.92,55.81,40.55-41,30.46-36.54,17-21.32,65.61-41.64-29.63-27.43-29.51-69,0,15.31-48.77,19.6-35.2-21.32-65.61C95.5,87.49,83.59,96,100,47.53m0-8.24a4.91,4.91,0,0,0-4.76,3.46L83.59,78.62a5,5,0,0,1-4.76,3.46H41.11a5,5,0,0,0-2.94,9L68.69,113.3a5,5,0,0,1,1.82,5.59L58.85,154.76a5,5,0,0,0,7.69,5.59c.37.08,33.93-25.58,33.46-23.13,1.18-1.72,31.92,22.63,33.46,23.13a5,5,0,0,0,7.69-5.59l-11.66-35.87a5,5,0,0,1,1.82-5.59l30.52-22.18a5,5,0,0,0-2.94-9H121.17a5,5,0,0,1-4.76-3.46L104.76,42.75A4.91,4.91,0,0,0,100,39.29Z" /></symbol><symbol id="water" viewBox="0 0 200 200"><path d="M100,38.43C116.3,57.74,145.4,101.75,144,121c-2.41,58.36-85.59,58.36-88,0,0-23,28.48-63.25,44-82.57M100,29S50,87.63,50,121a50,50,0,0,0,100,0c0-33.76-50-92-50-92Z" /></symbol></defs></svg>